<svg version="1.1" id="Layer_1" xmlns="http://www.w3.org/2000/svg" xmlns:xlink="http://www.w3.org/1999/xlink" x="0px" y="0px"
	 width="100%" viewBox="0 0 266 300" enable-background="new 0 0 266 300" xml:space="preserve">
<path fill="#F6F6F7" opacity="1.000000" stroke="none" 
	d="
M267.000000,112.000000 
	C267.000000,175.333328 267.000000,238.166672 267.000000,301.000000 
	C178.333328,301.000000 89.666664,301.000000 1.000000,301.000000 
	C1.000000,201.000000 1.000000,101.000000 1.000000,1.000000 
	C89.666664,1.000000 178.333328,1.000000 267.000000,1.000000 
	C267.000000,37.833332 267.000000,74.666664 267.000000,112.000000 
M165.732193,34.114296 
	C166.820419,32.139236 169.255920,29.511417 168.687820,28.338865 
	C167.787872,26.481403 164.934982,24.597824 162.808426,24.476360 
	C153.905899,23.967876 144.966156,24.111341 136.248505,23.369368 
	C140.713593,15.955776 146.721680,10.975417 155.866241,10.992976 
	C159.419205,10.999799 162.019028,11.988271 162.152740,16.310522 
	C162.183212,17.295486 163.781418,18.231953 164.658051,19.190752 
	C165.455627,18.126612 166.787964,17.140928 166.957596,15.984657 
	C167.667603,11.145164 163.844254,6.767074 158.609238,6.040624 
	C146.859360,4.410121 134.495255,12.358630 130.083557,24.220018 
	C128.704605,25.998093 126.414558,27.692305 126.240685,29.581305 
	C126.106400,31.040222 128.625443,32.743370 130.290924,34.894783 
	C135.975952,46.846622 146.098068,53.698189 156.986130,52.964512 
	C164.618805,52.450195 168.602386,46.852287 166.547562,39.506462 
	C166.060104,37.763836 165.515762,36.037125 165.732193,34.114296 
M61.366646,271.132141 
	C54.523254,269.074829 47.681473,267.012146 40.835873,264.962219 
	C36.617474,263.699005 34.611008,261.003601 34.692890,256.479584 
	C34.840649,248.315964 34.863281,240.143555 34.612755,231.984818 
	C34.563122,230.368515 33.049294,228.797195 32.210678,227.205124 
	C31.231197,228.854965 29.468487,230.475555 29.405603,232.159622 
	C29.107311,240.148178 29.196911,248.154953 29.294645,256.153442 
	C29.387407,263.745026 32.349476,267.732727 39.820713,269.999908 
	C68.770180,278.784851 97.720726,287.569672 126.755852,296.064087 
	C130.065292,297.032257 134.152374,296.996552 137.469116,296.026001 
	C166.180832,287.624664 194.807495,278.931671 223.439041,270.258057 
	C231.972794,267.672852 234.695297,263.878601 234.722000,254.962952 
	C234.753464,244.463455 234.855911,233.961349 234.652939,223.465698 
	C234.593307,220.381592 235.720139,218.969696 238.510635,218.132614 
	C243.604065,216.604706 248.656601,214.927338 253.676361,213.169952 
	C261.437012,210.452972 262.827118,206.368973 258.308685,199.585907 
	C251.753326,189.745026 245.311584,179.819458 238.437576,170.204391 
	C235.809784,166.528763 235.525604,163.879547 238.269989,160.117554 
	C244.350937,151.781860 249.999344,143.127136 255.719086,134.532593 
	C259.773346,128.440628 258.211700,123.597237 251.316284,121.338806 
	C222.246445,111.817726 193.129517,102.440445 164.058853,92.921867 
	C159.373016,91.387596 155.959229,92.663071 153.286819,96.617279 
	C148.158783,104.204956 142.912643,111.715813 137.956497,119.413712 
	C137.115082,120.720619 137.476715,122.802086 137.282532,124.525719 
	C138.869888,123.788193 141.050583,123.480034 141.946411,122.242088 
	C147.020874,115.229683 151.927582,108.084122 156.590897,100.791725 
	C158.477524,97.841415 160.603928,97.192749 163.697678,98.203514 
	C192.143738,107.497223 220.587250,116.799133 249.059372,126.012474 
	C252.726517,127.199135 253.536469,128.713379 251.200027,132.068695 
	C245.110291,140.814117 239.074738,149.608124 233.384201,158.614426 
	C231.546021,161.523666 229.734406,161.792374 226.895615,160.858597 
	C196.729065,150.935822 166.538025,141.087296 136.396393,131.089722 
	C134.691040,130.524094 132.959106,129.114944 131.916214,127.624794 
	C124.851593,117.530518 117.919830,107.341850 111.052139,97.111847 
	C108.309677,93.026726 105.025078,91.266945 100.038872,92.899101 
	C70.965179,102.415848 41.847210,111.797272 12.768988,121.300278 
	C5.845442,123.562935 4.200718,128.409515 8.220916,134.455368 
	C14.859651,144.439148 21.520285,154.411499 28.395830,164.231735 
	C29.605877,165.960052 31.724262,167.486313 33.738480,168.152405 
	C62.787510,177.759048 91.891472,187.199570 120.978584,196.691177 
	C123.088013,197.379532 125.169128,198.154678 127.835976,199.090332 
	C119.869781,210.831543 112.205070,221.709656 105.044014,232.909805 
	C102.534271,236.835144 100.051323,237.251022 96.004433,235.917175 
	C68.373291,226.809921 40.685547,217.874435 13.020706,208.869278 
	C7.966325,207.224014 7.559595,206.015717 10.612669,201.442947 
	C15.883582,193.548431 21.310425,185.755402 26.427774,177.763504 
	C27.307035,176.390350 26.975416,174.241837 27.203154,172.451492 
	C25.607578,173.178772 23.390055,173.466980 22.516722,174.704117 
	C16.563148,183.137726 10.821650,191.724533 5.155229,200.356125 
	C1.401251,206.074509 2.923082,210.809341 9.292500,212.896103 
	C38.519257,222.471512 67.785431,231.926559 97.031799,241.442200 
	C101.550873,242.912537 105.028656,241.973083 107.797997,237.818771 
	C115.464401,226.318329 123.208267,214.864655 131.201843,203.591248 
	C132.801865,201.334717 135.377151,199.161835 137.953720,198.302490 
	C157.351013,191.832916 176.864822,185.713089 196.334045,179.458527 
	C202.980255,177.323395 209.654663,175.255005 216.197632,172.835495 
	C217.693405,172.282379 218.699036,170.403732 219.930267,169.135132 
	C218.109085,168.764572 216.288910,168.388748 214.464752,168.033508 
	C214.320099,168.005356 214.146729,168.117126 213.988266,168.168579 
	C188.213837,176.536774 162.465195,184.986511 136.628113,193.156570 
	C133.847336,194.035904 130.308548,194.059708 127.533829,193.179779 
	C97.581299,183.681137 67.692581,173.978897 37.853947,164.127777 
	C35.391602,163.314835 32.833206,161.429489 31.326958,159.322250 
	C25.132072,150.655594 19.314766,141.718521 13.382805,132.864685 
	C10.198546,128.111969 10.329999,127.626274 15.926024,125.792442 
	C43.891659,116.628021 71.882591,107.540718 99.838249,98.346077 
	C103.394524,97.176430 105.609123,97.923798 107.711288,101.204430 
	C113.099998,109.613968 118.886070,117.768623 124.495956,126.036919 
	C125.485207,127.494949 126.390732,129.009796 127.629311,130.962555 
	C125.514488,131.772888 124.025352,132.418900 122.489143,132.920837 
	C97.988976,140.926086 73.467278,148.866318 49.013760,157.011368 
	C47.426468,157.540070 46.352966,159.611298 45.040470,160.964981 
	C46.902740,161.236084 48.983658,162.191101 50.594589,161.676056 
	C76.089546,153.525070 101.496552,145.098297 127.010170,137.007355 
	C129.954453,136.073669 133.686371,135.914276 136.594330,136.838852 
	C166.701233,146.411163 196.721634,156.256332 226.733185,166.125702 
	C228.516388,166.712112 230.545135,167.788040 231.566757,169.257111 
	C239.267319,180.330276 246.735123,191.565140 254.296936,202.735077 
	C256.215393,205.568893 255.433838,207.344604 252.290970,208.345718 
	C248.333252,209.606415 244.381165,210.885101 240.433365,212.176559 
	C216.416138,220.033432 192.368790,227.800690 168.413086,235.840912 
	C163.862259,237.368301 161.217819,236.634995 158.624771,232.438171 
	C153.552322,224.228394 147.991867,216.311371 142.391281,208.445557 
	C141.484360,207.171844 139.330856,206.785706 137.753586,205.989304 
	C137.881226,207.710175 137.412781,209.814407 138.233063,211.089813 
	C143.637466,219.492676 149.268326,227.752121 154.926788,235.988632 
	C159.540771,242.704819 161.509872,243.327713 169.145218,240.834259 
	C183.839142,236.035706 198.515610,231.183533 213.219009,226.414322 
	C218.319046,224.760071 223.477402,223.285660 229.269302,221.528854 
	C229.269302,233.135345 229.276627,243.775665 229.266800,254.415970 
	C229.259918,261.856201 227.827026,263.800598 220.906891,265.871185 
	C193.195358,274.162781 165.511139,282.548248 137.737900,290.627747 
	C134.431549,291.589600 130.389221,291.758148 127.115211,290.813660 
	C105.393234,284.547119 83.787796,277.876648 61.366646,271.132141 
M103.213913,180.210953 
	C111.882256,183.076096 120.513840,186.062469 129.247971,188.710602 
	C131.139862,189.284225 133.544052,189.097702 135.468567,188.489777 
	C153.832626,182.688828 172.149658,176.738495 190.467377,170.791611 
	C195.667755,169.103287 200.826233,167.285934 207.085815,165.160370 
	C205.122849,164.375107 204.400101,164.038605 203.647888,163.791931 
	C180.772842,156.290848 157.917236,148.728455 134.980820,141.419693 
	C132.822861,140.732040 130.006470,141.184891 127.744728,141.897934 
	C112.226334,146.790283 96.772079,151.886307 81.301941,156.931366 
	C73.509346,159.472641 65.726738,162.044540 57.939610,164.602585 
	C57.981632,164.958969 58.023651,165.315338 58.065674,165.671722 
	C72.860214,170.440399 87.654755,175.209076 103.213913,180.210953 
M155.189728,85.968452 
	C154.375717,84.710556 153.643875,82.436745 152.734070,82.363167 
	C147.642624,81.951393 142.506119,81.981415 137.390533,82.099846 
	C136.563843,82.118988 135.014206,83.481544 135.108032,83.973358 
	C135.308929,85.026466 136.348877,86.729301 137.074905,86.744492 
	C142.942108,86.867172 148.816193,86.660156 155.189728,85.968452 
M196.934631,57.037746 
	C193.987610,61.724289 190.962769,66.365570 188.181610,71.148552 
	C187.786697,71.827736 188.251892,73.612244 188.910599,74.124649 
	C189.539932,74.614197 191.578445,74.506630 191.903168,73.982933 
	C194.733215,69.418961 197.413925,64.751328 199.836792,59.961620 
	C200.103333,59.434685 198.472549,57.948002 196.934631,57.037746 
M182.908676,79.334404 
	C181.780945,78.377083 180.405716,76.420631 179.566620,76.628494 
	C174.949509,77.772209 170.421524,79.334953 165.968994,81.032150 
	C165.108505,81.360146 164.058075,83.126740 164.284409,83.865273 
	C164.550858,84.734718 166.358170,85.963539 167.072983,85.731148 
	C172.334747,84.020561 177.490463,81.983742 182.908676,79.334404 
M189.621887,36.851177 
	C191.123337,39.219772 192.465744,41.714977 194.202377,43.896328 
	C194.924271,44.803070 196.487442,45.040024 197.668045,45.581558 
	C198.063599,44.428577 199.153000,42.811329 198.742432,42.197769 
	C196.021011,38.130688 193.072952,34.199821 189.943375,30.436922 
	C189.438858,29.830301 187.659866,30.283644 186.470001,30.247011 
	C186.504898,31.474319 186.224472,32.833633 186.666840,33.890366 
	C187.077286,34.870831 188.259583,35.528187 189.621887,36.851177 
M122.737701,87.364670 
	C124.095642,86.265907 125.453575,85.167145 126.811508,84.068375 
	C125.133049,83.454208 123.365211,82.156647 121.793953,82.362144 
	C118.034119,82.853897 114.291252,83.836990 110.705498,85.090714 
	C109.541687,85.497620 108.886803,87.360130 107.999146,88.556854 
	C109.422562,88.989548 110.916000,89.935768 112.255508,89.753113 
	C115.524178,89.307404 118.721573,88.338982 122.737701,87.364670 
M99.866570,111.561592 
	C99.881905,110.735413 100.171722,109.779709 99.855667,109.109886 
	C99.188400,107.695747 98.204239,106.431122 97.350082,105.105156 
	C96.524200,106.348618 95.270088,107.499344 94.975876,108.857941 
	C94.565796,110.751587 94.546028,112.875793 94.977745,114.759567 
	C95.323837,116.269669 96.590767,117.568733 97.449036,118.961441 
	C98.271088,117.453445 99.169441,115.979874 99.873627,114.418716 
	C100.118652,113.875526 99.883530,113.115768 99.866570,111.561592 
M100.223267,131.141632 
	C102.026062,132.911728 102.597572,137.696899 105.998001,135.606995 
	C109.942856,133.182480 105.449356,130.617004 104.397797,128.319992 
	C103.805580,127.026382 101.898537,126.334686 100.583809,125.371826 
	C100.344467,127.074348 100.105133,128.776871 100.223267,131.141632 
z"/>
<path fill="#7A91AF" opacity="1.000000" stroke="none" 
	d="
M61.755539,271.234863 
	C83.787796,277.876648 105.393234,284.547119 127.115211,290.813660 
	C130.389221,291.758148 134.431549,291.589600 137.737900,290.627747 
	C165.511139,282.548248 193.195358,274.162781 220.906891,265.871185 
	C227.827026,263.800598 229.259918,261.856201 229.266800,254.415970 
	C229.276627,243.775665 229.269302,233.135345 229.269302,221.528854 
	C223.477402,223.285660 218.319046,224.760071 213.219009,226.414322 
	C198.515610,231.183533 183.839142,236.035706 169.145218,240.834259 
	C161.509872,243.327713 159.540771,242.704819 154.926788,235.988632 
	C149.268326,227.752121 143.637466,219.492676 138.233063,211.089813 
	C137.412781,209.814407 137.881226,207.710175 137.753586,205.989304 
	C139.330856,206.785706 141.484360,207.171844 142.391281,208.445557 
	C147.991867,216.311371 153.552322,224.228394 158.624771,232.438171 
	C161.217819,236.634995 163.862259,237.368301 168.413086,235.840912 
	C192.368790,227.800690 216.416138,220.033432 240.433365,212.176559 
	C244.381165,210.885101 248.333252,209.606415 252.290970,208.345718 
	C255.433838,207.344604 256.215393,205.568893 254.296936,202.735077 
	C246.735123,191.565140 239.267319,180.330276 231.566757,169.257111 
	C230.545135,167.788040 228.516388,166.712112 226.733185,166.125702 
	C196.721634,156.256332 166.701233,146.411163 136.594330,136.838852 
	C133.686371,135.914276 129.954453,136.073669 127.010170,137.007355 
	C101.496552,145.098297 76.089546,153.525070 50.594589,161.676056 
	C48.983658,162.191101 46.902740,161.236084 45.040466,160.964981 
	C46.352966,159.611298 47.426468,157.540070 49.013760,157.011368 
	C73.467278,148.866318 97.988976,140.926086 122.489143,132.920837 
	C124.025352,132.418900 125.514488,131.772888 127.629311,130.962555 
	C126.390732,129.009796 125.485207,127.494949 124.495956,126.036919 
	C118.886070,117.768623 113.099998,109.613968 107.711288,101.204430 
	C105.609123,97.923798 103.394524,97.176430 99.838249,98.346077 
	C71.882591,107.540718 43.891659,116.628021 15.926024,125.792442 
	C10.329999,127.626274 10.198546,128.111969 13.382805,132.864685 
	C19.314766,141.718521 25.132072,150.655594 31.326958,159.322250 
	C32.833206,161.429489 35.391602,163.314835 37.853947,164.127777 
	C67.692581,173.978897 97.581299,183.681137 127.533829,193.179779 
	C130.308548,194.059708 133.847336,194.035904 136.628113,193.156570 
	C162.465195,184.986511 188.213837,176.536774 213.988266,168.168579 
	C214.146729,168.117126 214.320099,168.005356 214.464752,168.033508 
	C216.288910,168.388748 218.109085,168.764572 219.930267,169.135132 
	C218.699036,170.403732 217.693405,172.282379 216.197632,172.835495 
	C209.654663,175.255005 202.980255,177.323395 196.334045,179.458527 
	C176.864822,185.713089 157.351013,191.832916 137.953720,198.302490 
	C135.377151,199.161835 132.801865,201.334717 131.201843,203.591248 
	C123.208267,214.864655 115.464401,226.318329 107.797997,237.818771 
	C105.028656,241.973083 101.550873,242.912537 97.031799,241.442200 
	C67.785431,231.926559 38.519257,222.471512 9.292500,212.896103 
	C2.923082,210.809341 1.401251,206.074509 5.155229,200.356125 
	C10.821650,191.724533 16.563148,183.137726 22.516722,174.704117 
	C23.390055,173.466980 25.607578,173.178772 27.203154,172.451492 
	C26.975416,174.241837 27.307035,176.390350 26.427774,177.763504 
	C21.310425,185.755402 15.883582,193.548431 10.612669,201.442947 
	C7.559595,206.015717 7.966325,207.224014 13.020706,208.869278 
	C40.685547,217.874435 68.373291,226.809921 96.004433,235.917175 
	C100.051323,237.251022 102.534271,236.835144 105.044014,232.909805 
	C112.205070,221.709656 119.869781,210.831543 127.835976,199.090332 
	C125.169128,198.154678 123.088013,197.379532 120.978584,196.691177 
	C91.891472,187.199570 62.787510,177.759048 33.738480,168.152405 
	C31.724262,167.486313 29.605877,165.960052 28.395830,164.231735 
	C21.520285,154.411499 14.859651,144.439148 8.220916,134.455368 
	C4.200718,128.409515 5.845442,123.562935 12.768988,121.300278 
	C41.847210,111.797272 70.965179,102.415848 100.038872,92.899101 
	C105.025078,91.266945 108.309677,93.026726 111.052139,97.111847 
	C117.919830,107.341850 124.851593,117.530518 131.916214,127.624794 
	C132.959106,129.114944 134.691040,130.524094 136.396393,131.089722 
	C166.538025,141.087296 196.729065,150.935822 226.895615,160.858597 
	C229.734406,161.792374 231.546021,161.523666 233.384201,158.614426 
	C239.074738,149.608124 245.110291,140.814117 251.200027,132.068695 
	C253.536469,128.713379 252.726517,127.199135 249.059372,126.012474 
	C220.587250,116.799133 192.143738,107.497223 163.697678,98.203514 
	C160.603928,97.192749 158.477524,97.841415 156.590897,100.791725 
	C151.927582,108.084122 147.020874,115.229683 141.946411,122.242088 
	C141.050583,123.480034 138.869888,123.788193 137.282532,124.525711 
	C137.476715,122.802086 137.115082,120.720619 137.956497,119.413712 
	C142.912643,111.715813 148.158783,104.204956 153.286819,96.617279 
	C155.959229,92.663071 159.373016,91.387596 164.058853,92.921867 
	C193.129517,102.440445 222.246445,111.817726 251.316284,121.338806 
	C258.211700,123.597237 259.773346,128.440628 255.719086,134.532593 
	C249.999344,143.127136 244.350937,151.781860 238.269989,160.117554 
	C235.525604,163.879547 235.809784,166.528763 238.437576,170.204391 
	C245.311584,179.819458 251.753326,189.745026 258.308685,199.585907 
	C262.827118,206.368973 261.437012,210.452972 253.676361,213.169952 
	C248.656601,214.927338 243.604065,216.604706 238.510635,218.132614 
	C235.720139,218.969696 234.593307,220.381592 234.652939,223.465698 
	C234.855911,233.961349 234.753464,244.463455 234.722000,254.962952 
	C234.695297,263.878601 231.972794,267.672852 223.439041,270.258057 
	C194.807495,278.931671 166.180832,287.624664 137.469116,296.026001 
	C134.152374,296.996552 130.065292,297.032257 126.755852,296.064087 
	C97.720726,287.569672 68.770180,278.784851 39.820713,269.999908 
	C32.349476,267.732727 29.387407,263.745026 29.294645,256.153442 
	C29.196911,248.154953 29.107311,240.148178 29.405603,232.159622 
	C29.468487,230.475555 31.231197,228.854965 32.210682,227.205124 
	C33.049294,228.797195 34.563122,230.368515 34.612755,231.984818 
	C34.863281,240.143555 34.840649,248.315964 34.692890,256.479584 
	C34.611008,261.003601 36.617474,263.699005 40.835873,264.962219 
	C47.681473,267.012146 54.523254,269.074829 61.755539,271.234863 
z"/>
<path fill="#2F75FF" opacity="1.000000" stroke="none" 
	d="
M102.831604,180.094360 
	C87.654755,175.209076 72.860214,170.440399 58.065674,165.671722 
	C58.023651,165.315338 57.981632,164.958969 57.939610,164.602585 
	C65.726738,162.044540 73.509346,159.472641 81.301941,156.931366 
	C96.772079,151.886307 112.226334,146.790283 127.744728,141.897934 
	C130.006470,141.184891 132.822861,140.732040 134.980820,141.419693 
	C157.917236,148.728455 180.772842,156.290848 203.647888,163.791931 
	C204.400101,164.038605 205.122849,164.375107 207.085815,165.160370 
	C200.826233,167.285934 195.667755,169.103287 190.467377,170.791611 
	C172.149658,176.738495 153.832626,182.688828 135.468567,188.489777 
	C133.544052,189.097702 131.139862,189.284225 129.247971,188.710602 
	C120.513840,186.062469 111.882256,183.076096 102.831604,180.094360 
z"/>
<path fill="#3479FE" opacity="1.000000" stroke="none" 
	d="
M129.964828,34.337929 
	C128.625443,32.743370 126.106400,31.040222 126.240685,29.581305 
	C126.414558,27.692305 128.704605,25.998093 130.853424,24.134699 
	C133.095551,24.038233 134.567795,24.027086 136.040039,24.015938 
	C144.966156,24.111341 153.905899,23.967876 162.808426,24.476360 
	C164.934982,24.597824 167.787872,26.481403 168.687820,28.338865 
	C169.255920,29.511417 166.820419,32.139236 164.975250,34.137665 
	C162.435928,34.424107 160.653564,34.687183 158.428558,34.843307 
	C150.732971,34.646252 143.480042,34.556149 135.785202,34.368816 
	C133.550476,34.293705 131.757660,34.315815 129.964828,34.337929 
z"/>
<path fill="#7A93B6" opacity="1.000000" stroke="none" 
	d="
M158.871185,34.950264 
	C160.653564,34.687183 162.435928,34.424107 164.607941,34.232063 
	C165.515762,36.037125 166.060104,37.763836 166.547562,39.506462 
	C168.602386,46.852287 164.618805,52.450195 156.986130,52.964512 
	C146.098068,53.698189 135.975952,46.846622 130.127869,34.616356 
	C131.757660,34.315815 133.550476,34.293705 135.820404,34.676102 
	C139.576889,42.065445 145.242310,46.216377 152.617386,47.554737 
	C155.227341,48.028374 159.268524,47.438950 160.669159,45.717781 
	C161.918930,44.181999 160.510345,40.404202 160.101807,37.641361 
	C159.963242,36.704163 159.296555,35.845055 158.871185,34.950264 
z"/>
<path fill="#7990AF" opacity="1.000000" stroke="none" 
	d="
M136.144272,23.692654 
	C134.567795,24.027086 133.095551,24.038233 131.179062,24.004812 
	C134.495255,12.358630 146.859360,4.410121 158.609238,6.040624 
	C163.844254,6.767074 167.667603,11.145164 166.957596,15.984657 
	C166.787964,17.140928 165.455627,18.126612 164.658051,19.190746 
	C163.781418,18.231953 162.183212,17.295486 162.152740,16.310522 
	C162.019028,11.988271 159.419205,10.999799 155.866241,10.992976 
	C146.721680,10.975417 140.713593,15.955776 136.144272,23.692654 
z"/>
<path fill="#7B91AF" opacity="1.000000" stroke="none" 
	d="
M154.938965,86.261108 
	C148.816193,86.660156 142.942108,86.867172 137.074905,86.744492 
	C136.348877,86.729301 135.308929,85.026466 135.108032,83.973358 
	C135.014206,83.481544 136.563843,82.118988 137.390533,82.099846 
	C142.506119,81.981415 147.642624,81.951393 152.734070,82.363167 
	C153.643875,82.436745 154.375717,84.710556 154.938965,86.261108 
z"/>
<path fill="#7B92B0" opacity="1.000000" stroke="none" 
	d="
M197.328186,56.972099 
	C198.472549,57.948002 200.103333,59.434685 199.836792,59.961620 
	C197.413925,64.751328 194.733215,69.418961 191.903168,73.982933 
	C191.578445,74.506630 189.539932,74.614197 188.910599,74.124649 
	C188.251892,73.612244 187.786697,71.827736 188.181610,71.148552 
	C190.962769,66.365570 193.987610,61.724289 197.328186,56.972099 
z"/>
<path fill="#7B92B0" opacity="1.000000" stroke="none" 
	d="
M182.794128,79.692017 
	C177.490463,81.983742 172.334747,84.020561 167.072983,85.731148 
	C166.358170,85.963539 164.550858,84.734718 164.284409,83.865273 
	C164.058075,83.126740 165.108505,81.360146 165.968994,81.032150 
	C170.421524,79.334953 174.949509,77.772209 179.566620,76.628494 
	C180.405716,76.420631 181.780945,78.377083 182.794128,79.692017 
z"/>
<path fill="#7C93B0" opacity="1.000000" stroke="none" 
	d="
M189.361954,36.589497 
	C188.259583,35.528187 187.077286,34.870831 186.666840,33.890366 
	C186.224472,32.833633 186.504898,31.474319 186.470001,30.247009 
	C187.659866,30.283644 189.438858,29.830301 189.943375,30.436922 
	C193.072952,34.199821 196.021011,38.130688 198.742432,42.197769 
	C199.153000,42.811329 198.063599,44.428577 197.668060,45.581558 
	C196.487442,45.040024 194.924271,44.803070 194.202377,43.896328 
	C192.465744,41.714977 191.123337,39.219772 189.361954,36.589497 
z"/>
<path fill="#7A91AF" opacity="1.000000" stroke="none" 
	d="
M122.342682,87.472839 
	C118.721573,88.338982 115.524178,89.307404 112.255508,89.753113 
	C110.916000,89.935768 109.422562,88.989548 107.999146,88.556854 
	C108.886803,87.360130 109.541687,85.497620 110.705498,85.090714 
	C114.291252,83.836990 118.034119,82.853897 121.793953,82.362144 
	C123.365211,82.156647 125.133049,83.454208 126.811508,84.068375 
	C125.453575,85.167145 124.095642,86.265907 122.342682,87.472839 
z"/>
<path fill="#7B91B0" opacity="1.000000" stroke="none" 
	d="
M99.867134,112.008255 
	C99.883530,113.115768 100.118652,113.875526 99.873627,114.418716 
	C99.169441,115.979874 98.271088,117.453445 97.449043,118.961441 
	C96.590767,117.568733 95.323837,116.269669 94.977745,114.759567 
	C94.546028,112.875793 94.565796,110.751587 94.975876,108.857941 
	C95.270088,107.499344 96.524200,106.348618 97.350082,105.105156 
	C98.204239,106.431122 99.188400,107.695747 99.855667,109.109886 
	C100.171722,109.779709 99.881905,110.735413 99.867134,112.008255 
z"/>
<path fill="#7B91B0" opacity="1.000000" stroke="none" 
	d="
M100.044525,130.810516 
	C100.105133,128.776871 100.344467,127.074348 100.583809,125.371826 
	C101.898537,126.334686 103.805580,127.026382 104.397797,128.319992 
	C105.449356,130.617004 109.942856,133.182480 105.998001,135.606995 
	C102.597572,137.696899 102.026062,132.911728 100.044525,130.810516 
z"/>
<path fill="#F4F4F5" opacity="1.000000" stroke="none" 
	d="
M158.428558,34.843307 
	C159.296555,35.845055 159.963242,36.704163 160.101807,37.641361 
	C160.510345,40.404202 161.918930,44.181999 160.669159,45.717781 
	C159.268524,47.438950 155.227341,48.028374 152.617386,47.554737 
	C145.242310,46.216377 139.576889,42.065445 136.262299,34.773323 
	C143.480042,34.556149 150.732971,34.646252 158.428558,34.843307 
z"/>
</svg>