<?xml version="1.0" encoding="utf-8"?>
<!-- Generator: Adobe Illustrator 28.4.1, SVG Export Plug-In . SVG Version: 6.00 Build 0)  -->
<svg version="1.1" id="Layer_1" xmlns="http://www.w3.org/2000/svg" xmlns:xlink="http://www.w3.org/1999/xlink" x="0px" y="0px"
	 viewBox="0 0 960 300" style="enable-background:new 0 0 960 300;" xml:space="preserve">
<style type="text/css">
	.st0{fill:#F6F6F7;}
	.st1{fill:#7A91AF;}
	.st2{fill:#2F75FF;}
	.st3{fill:#3479FE;}
	.st4{fill:#7A93B6;}
	.st5{fill:#7990AF;}
	.st6{fill:#7B91AF;}
	.st7{fill:#7B92B0;}
	.st8{fill:#7C93B0;}
	.st9{fill:#7B91B0;}
	.st10{fill:#F4F4F5;}
</style>
<path class="st0" d="M960,118.4c0,118,0,235.1,0,352.1c-318.5,0-637,0-955.5,0c0-186.3,0-372.6,0-558.9c318.5,0,637,0,955.5,0
	C960-19.8,960,48.8,960,118.4 M596.2-26.7c3.9-3.7,12.7-8.6,10.6-10.8c-3.2-3.5-13.5-7-21.1-7.2c-32-0.9-64.1-0.7-95.4-2.1
	c16-13.8,37.6-23.1,70.5-23.1c12.8,0,22.1,1.9,22.6,9.9c0.1,1.8,5.9,3.6,9,5.4c2.9-2,7.7-3.8,8.3-6c2.6-9-11.2-17.2-30-18.5
	c-42.2-3-86.6,11.8-102.5,33.9c-5,3.3-13.2,6.5-13.8,10c-0.5,2.7,8.6,5.9,14.5,9.9c20.4,22.3,56.8,35,95.9,33.7
	c27.4-1,41.7-11.4,34.3-25.1C597.4-19.9,595.4-23.2,596.2-26.7 M221.3,414.9c-24.6-3.8-49.2-7.7-73.8-11.5
	c-15.2-2.4-22.4-7.4-22.1-15.8c0.5-15.2,0.6-30.4-0.3-45.6c-0.2-3-5.6-5.9-8.6-8.9c-3.5,3.1-9.9,6.1-10.1,9.2
	c-1.1,14.9-0.7,29.8-0.4,44.7c0.3,14.1,11,21.6,37.8,25.8c104,16.4,208,32.7,312.3,48.6c11.9,1.8,26.6,1.7,38.5-0.1
	c103.1-15.7,206-31.8,308.8-48c30.7-4.8,40.4-11.9,40.5-28.5c0.1-19.6,0.5-39.1-0.2-58.7c-0.2-5.7,3.8-8.4,13.9-9.9
	c18.3-2.8,36.4-6,54.5-9.2c27.9-5.1,32.9-12.7,16.6-25.3c-23.5-18.3-46.7-36.8-71.4-54.7c-9.4-6.8-10.5-11.8-0.6-18.8
	c21.8-15.5,42.1-31.7,62.7-47.7c14.6-11.3,9-20.4-15.8-24.6c-104.4-17.7-209-35.2-313.5-52.9c-16.8-2.9-29.1-0.5-38.7,6.9
	c-18.4,14.1-37.3,28.1-55.1,42.5c-3,2.4-1.7,6.3-2.4,9.5c5.7-1.4,13.5-1.9,16.8-4.3c18.2-13.1,35.9-26.4,52.6-40
	c6.8-5.5,14.4-6.7,25.5-4.8c102.2,17.3,204.4,34.6,306.6,51.8c13.2,2.2,16.1,5,7.7,11.3c-21.9,16.3-43.6,32.7-64,49.5
	c-6.6,5.4-13.1,5.9-23.3,4.2c-108.4-18.5-216.8-36.8-325.1-55.5c-6.1-1.1-12.3-3.7-16.1-6.5c-25.4-18.8-50.3-37.8-74.9-56.8
	c-9.9-7.6-21.7-10.9-39.6-7.8c-104.4,17.7-209,35.2-313.5,52.9c-24.9,4.2-30.8,13.2-16.3,24.5c23.8,18.6,47.8,37.2,72.5,55.5
	c4.3,3.2,12,6.1,19.2,7.3c104.4,17.9,208.9,35.5,313.4,53.2c7.6,1.3,15.1,2.7,24.6,4.5c-28.6,21.9-56.2,42.1-81.9,63
	c-9,7.3-17.9,8.1-32.5,5.6c-99.3-17-198.7-33.6-298.1-50.4C29.5,295.8,28,293.5,39,285c18.9-14.7,38.4-29.2,56.8-44.1
	c3.2-2.6,2-6.6,2.8-9.9c-5.7,1.4-13.7,1.9-16.8,4.2c-21.4,15.7-42,31.7-62.4,47.8c-13.5,10.7-8,19.5,14.9,23.4
	c105,17.8,210.1,35.5,315.2,53.2c16.2,2.7,28.7,1,38.7-6.8c27.5-21.4,55.4-42.8,84.1-63.8c5.7-4.2,15-8.3,24.3-9.9
	c69.7-12.1,139.8-23.5,209.7-35.1c23.9-4,47.9-7.8,71.4-12.3c5.4-1,9-4.5,13.4-6.9c-6.5-0.7-13.1-1.4-19.6-2.1
	c-0.5-0.1-1.1,0.2-1.7,0.3c-92.6,15.6-185.1,31.3-277.9,46.6c-10,1.6-22.7,1.7-32.7,0c-107.6-17.7-215-35.8-322.2-54.1
	c-8.8-1.5-18-5-23.4-9c-22.3-16.1-43.2-32.8-64.5-49.3c-11.4-8.9-11-9.8,9.1-13.2c100.5-17.1,201-34,301.4-51.1
	c12.8-2.2,20.7-0.8,28.3,5.3c19.4,15.7,40.1,30.9,60.3,46.3c3.6,2.7,6.8,5.5,11.3,9.2c-7.6,1.5-12.9,2.7-18.5,3.6
	c-88,14.9-176.1,29.7-263.9,44.9c-5.7,1-9.6,4.8-14.3,7.4c6.7,0.5,14.2,2.3,20,1.3c91.6-15.2,182.9-30.9,274.5-46
	c10.6-1.7,24-2,34.4-0.3c108.2,17.8,216,36.2,323.8,54.6c6.4,1.1,13.7,3.1,17.4,5.8c27.7,20.6,54.5,41.6,81.7,62.4
	c6.9,5.3,4.1,8.6-7.2,10.5c-14.2,2.3-28.4,4.7-42.6,7.1c-86.3,14.6-172.7,29.1-258.7,44.1c-16.3,2.8-25.8,1.5-35.2-6.3
	c-18.2-15.3-38.2-30-58.3-44.7c-3.3-2.4-11-3.1-16.7-4.6c0.5,3.2-1.2,7.1,1.7,9.5c19.4,15.7,39.6,31,60,46.4
	c16.6,12.5,23.6,13.7,51.1,9c52.8-8.9,105.5-18,158.3-26.9c18.3-3.1,36.9-5.8,57.7-9.1c0,21.6,0,41.4,0,61.3
	c0,13.9-5.2,17.5-30,21.3c-99.5,15.4-199,31.1-298.8,46.1c-11.9,1.8-26.4,2.1-38.2,0.3C379.5,439.8,301.9,427.4,221.3,414.9
	 M371.6,245.5c31.1,5.3,62.1,10.9,93.5,15.8c6.8,1.1,15.4,0.7,22.3-0.4c66-10.8,131.8-21.9,197.6-33c18.7-3.1,37.2-6.5,59.7-10.5
	c-7.1-1.5-9.6-2.1-12.3-2.5c-82.2-14-164.3-28.1-246.7-41.7c-7.8-1.3-17.9-0.4-26,0.9c-55.7,9.1-111.3,18.6-166.8,28
	c-28,4.7-56,9.5-83.9,14.3c0.2,0.7,0.3,1.3,0.5,2C262.6,227.3,315.7,236.1,371.6,245.5 M558.3,69.9c-2.9-2.3-5.6-6.6-8.8-6.7
	c-18.3-0.8-36.7-0.7-55.1-0.5c-3,0-8.5,2.6-8.2,3.5c0.7,2,4.5,5.1,7.1,5.2C514.4,71.5,535.5,71.2,558.3,69.9 M708.3,16
	c-10.6,8.7-21.5,17.4-31.4,26.3c-1.4,1.3,0.3,4.6,2.6,5.5c2.3,0.9,9.6,0.7,10.8-0.3c10.2-8.5,19.8-17.2,28.5-26.1
	C719.7,20.4,713.8,17.7,708.3,16 M657.9,57.5c-4.1-1.8-9-5.4-12-5c-16.6,2.1-32.9,5-48.8,8.2c-3.1,0.6-6.9,3.9-6.1,5.3
	c1,1.6,7.4,3.9,10,3.5C619.9,66.2,638.5,62.5,657.9,57.5 M682-21.6c5.4,4.4,10.2,9.1,16.5,13.1c2.6,1.7,8.2,2.1,12.4,3.1
	c1.4-2.1,5.3-5.2,3.9-6.3c-9.8-7.6-20.4-14.9-31.6-21.9c-1.8-1.1-8.2-0.3-12.5-0.4c0.1,2.3-0.9,4.8,0.7,6.8
	C672.9-25.3,677.1-24.1,682-21.6 M441.8,72.5c4.9-2,9.8-4.1,14.6-6.1c-6-1.1-12.4-3.6-18-3.2c-13.5,0.9-27,2.7-39.8,5.1
	c-4.2,0.8-6.5,4.2-9.7,6.5c5.1,0.8,10.5,2.6,15.3,2.2C415.9,76.1,427.3,74.3,441.8,72.5 M359.6,117.6c0.1-1.5,1.1-3.3,0-4.6
	c-2.4-2.6-5.9-5-9-7.5c-3,2.3-7.5,4.5-8.5,7c-1.5,3.5-1.5,7.5,0,11c1.2,2.8,5.8,5.2,8.9,7.8c3-2.8,6.2-5.6,8.7-8.5
	C360.5,121.9,359.7,120.5,359.6,117.6 M360.9,154c6.5,3.3,8.5,12.2,20.7,8.3c14.2-4.5-2-9.3-5.7-13.6c-2.1-2.4-9-3.7-13.7-5.5
	C361.3,146.5,360.5,149.6,360.9,154z"/>
<rect x="30.7" y="-87.4" class="st0" width="919.6" height="332.7"/>
<rect x="7.1" y="137.8" class="st0" width="422.5" height="332.7"/>
<rect x="397.6" y="131.3" class="st0" width="549.7" height="332.7"/>
<path class="st1" d="M412,269.9c22,6.6,43.6,13.3,65.4,19.6c3.3,0.9,7.3,0.8,10.6-0.2c27.8-8.1,55.5-16.5,83.2-24.8
	c6.9-2.1,8.4-4,8.4-11.5c0-10.6,0-21.3,0-32.9c-5.8,1.8-11,3.2-16.1,4.9c-14.7,4.8-29.4,9.6-44.1,14.4c-7.6,2.5-9.6,1.9-14.2-4.8
	c-5.7-8.2-11.3-16.5-16.7-24.9c-0.8-1.3-0.4-3.4-0.5-5.1c1.6,0.8,3.7,1.2,4.6,2.5c5.6,7.9,11.2,15.8,16.2,24
	c2.6,4.2,5.2,4.9,9.8,3.4c24-8,48-15.8,72-23.7c3.9-1.3,7.9-2.6,11.9-3.8c3.1-1,3.9-2.8,2-5.6c-7.6-11.2-15-22.4-22.7-33.5
	c-1-1.5-3.1-2.5-4.8-3.1c-30-9.9-60-19.7-90.1-29.3c-2.9-0.9-6.6-0.8-9.6,0.2c-25.5,8.1-50.9,16.5-76.4,24.7
	c-1.6,0.5-3.7-0.4-5.6-0.7c1.3-1.4,2.4-3.4,4-4c24.5-8.1,49-16.1,73.5-24.1c1.5-0.5,3-1.1,5.1-2c-1.2-2-2.1-3.5-3.1-4.9
	c-5.6-8.3-11.4-16.4-16.8-24.8c-2.1-3.3-4.3-4-7.9-2.9c-28,9.2-55.9,18.3-83.9,27.4c-5.6,1.8-5.7,2.3-2.5,7.1
	c5.9,8.9,11.7,17.8,17.9,26.5c1.5,2.1,4.1,4,6.5,4.8c29.8,9.9,59.7,19.6,89.7,29.1c2.8,0.9,6.3,0.9,9.1,0
	c25.8-8.2,51.6-16.6,77.4-25c0.2-0.1,0.3-0.2,0.5-0.1c1.8,0.4,3.6,0.7,5.5,1.1c-1.2,1.3-2.2,3.1-3.7,3.7c-6.5,2.4-13.2,4.5-19.9,6.6
	c-19.5,6.3-39,12.4-58.4,18.8c-2.6,0.9-5.2,3-6.8,5.3c-8,11.3-15.7,22.7-23.4,34.2c-2.8,4.2-6.2,5.1-10.8,3.6
	c-29.2-9.5-58.5-19-87.7-28.5c-6.4-2.1-7.9-6.8-4.1-12.5c5.7-8.6,11.4-17.2,17.4-25.7c0.9-1.2,3.1-1.5,4.7-2.3
	c-0.2,1.8,0.1,3.9-0.8,5.3c-5.1,8-10.5,15.8-15.8,23.7c-3.1,4.6-2.6,5.8,2.4,7.4c27.7,9,55.4,17.9,83,27c4,1.3,6.5,0.9,9-3
	c7.2-11.2,14.8-22.1,22.8-33.8c-2.7-0.9-4.7-1.7-6.9-2.4c-29.1-9.5-58.2-18.9-87.2-28.5c-2-0.7-4.1-2.2-5.3-3.9
	c-6.9-9.8-13.5-19.8-20.2-29.8c-4-6-2.4-10.9,4.5-13.2c29.1-9.5,58.2-18.9,87.3-28.4c5-1.6,8.3,0.1,11,4.2
	c6.9,10.2,13.8,20.4,20.9,30.5c1,1.5,2.8,2.9,4.5,3.5c30.1,10,60.3,19.8,90.5,29.8c2.8,0.9,4.7,0.7,6.5-2.2
	c5.7-9,11.7-17.8,17.8-26.5c2.3-3.4,1.5-4.9-2.1-6.1c-28.5-9.2-56.9-18.5-85.4-27.8c-3.1-1-5.2-0.4-7.1,2.6
	c-4.7,7.3-9.6,14.4-14.6,21.5c-0.9,1.2-3.1,1.5-4.7,2.3c0.2-1.7-0.2-3.8,0.7-5.1c5-7.7,10.2-15.2,15.3-22.8c2.7-4,6.1-5.2,10.8-3.7
	c29.1,9.5,58.2,18.9,87.3,28.4c6.9,2.3,8.5,7.1,4.4,13.2c-5.7,8.6-11.4,17.2-17.4,25.6c-2.7,3.8-2.5,6.4,0.2,10.1
	c6.9,9.6,13.3,19.5,19.9,29.4c4.5,6.8,3.1,10.9-4.6,13.6c-5,1.8-10.1,3.4-15.2,5c-2.8,0.8-3.9,2.2-3.9,5.3c0.2,10.5,0.1,21,0.1,31.5
	c0,8.9-2.7,12.7-11.3,15.3c-28.6,8.7-57.3,17.4-86,25.8c-3.3,1-7.4,1-10.7,0c-29-8.5-58-17.3-86.9-26.1c-7.5-2.3-10.4-6.3-10.5-13.8
	c-0.1-8-0.2-16,0.1-24c0.1-1.7,1.8-3.3,2.8-5c0.8,1.6,2.4,3.2,2.4,4.8c0.3,8.2,0.2,16.3,0.1,24.5c-0.1,4.5,1.9,7.2,6.1,8.5
	C397.9,265.7,404.8,267.8,412,269.9z"/>
<path class="st2" d="M453.1,178.8c-15.2-4.9-30-9.7-44.8-14.4c0-0.4-0.1-0.7-0.1-1.1c7.8-2.6,15.6-5.1,23.4-7.7
	c15.5-5,30.9-10.1,46.4-15c2.3-0.7,5.1-1.2,7.2-0.5c22.9,7.3,45.8,14.9,68.7,22.4c0.8,0.2,1.5,0.6,3.4,1.4
	c-6.3,2.1-11.4,3.9-16.6,5.6c-18.3,5.9-36.6,11.9-55,17.7c-1.9,0.6-4.3,0.8-6.2,0.2C470.7,184.8,462.1,181.8,453.1,178.8z"/>
<path class="st3" d="M480.2,33c-1.3-1.6-3.9-3.3-3.7-4.8c0.2-1.9,2.5-3.6,4.6-5.4c2.2-0.1,3.7-0.1,5.2-0.1c8.9,0.1,17.9,0,26.8,0.5
	c2.1,0.1,5,2,5.9,3.9c0.6,1.2-1.9,3.8-3.7,5.8c-2.5,0.3-4.3,0.5-6.5,0.7c-7.7-0.2-14.9-0.3-22.6-0.5C483.8,33,482,33,480.2,33z"/>
<path class="st4" d="M509.1,33.6c1.8-0.3,3.6-0.5,5.7-0.7c0.9,1.8,1.5,3.5,1.9,5.3c2.1,7.3-1.9,12.9-9.6,13.5
	c-10.9,0.7-21-6.1-26.9-18.3c1.6-0.3,3.4-0.3,5.7,0.1c3.8,7.4,9.4,11.5,16.8,12.9c2.6,0.5,6.7-0.1,8.1-1.8c1.2-1.5-0.2-5.3-0.6-8.1
	C510.2,35.4,509.5,34.5,509.1,33.6z"/>
<path class="st5" d="M486.4,22.4c-1.6,0.3-3,0.3-5,0.3c3.3-11.6,15.7-19.6,27.4-18c5.2,0.7,9.1,5.1,8.3,9.9
	c-0.2,1.2-1.5,2.1-2.3,3.2c-0.9-1-2.5-1.9-2.5-2.9c-0.1-4.3-2.7-5.3-6.3-5.3C496.9,9.7,490.9,14.7,486.4,22.4z"/>
<path class="st6" d="M505.2,85c-6.1,0.4-12,0.6-17.9,0.5c-0.7,0-1.8-1.7-2-2.8c-0.1-0.5,1.5-1.9,2.3-1.9c5.1-0.1,10.3-0.1,15.3,0.3
	C503.9,81.1,504.6,83.4,505.2,85z"/>
<path class="st7" d="M547.6,55.7c1.1,1,2.8,2.5,2.5,3c-2.4,4.8-5.1,9.5-7.9,14c-0.3,0.5-2.4,0.6-3,0.1c-0.7-0.5-1.1-2.3-0.7-3
	C541.2,65.1,544.2,60.4,547.6,55.7z"/>
<path class="st7" d="M533,78.4c-5.3,2.3-10.5,4.3-15.7,6c-0.7,0.2-2.5-1-2.8-1.9c-0.2-0.7,0.8-2.5,1.7-2.8c4.5-1.7,9-3.3,13.6-4.4
	C530.6,75.1,532,77.1,533,78.4z"/>
<path class="st8" d="M539.6,35.3c-1.1-1.1-2.3-1.7-2.7-2.7c-0.4-1.1-0.2-2.4-0.2-3.6c1.2,0,3-0.4,3.5,0.2c3.1,3.8,6.1,7.7,8.8,11.8
	c0.4,0.6-0.7,2.2-1.1,3.4c-1.2-0.5-2.7-0.8-3.5-1.7C542.7,40.4,541.4,37.9,539.6,35.3z"/>
<path class="st1" d="M472.6,86.2c-3.6,0.9-6.8,1.8-10.1,2.3c-1.3,0.2-2.8-0.8-4.3-1.2c0.9-1.2,1.5-3.1,2.7-3.5
	c3.6-1.3,7.3-2.2,11.1-2.7c1.6-0.2,3.3,1.1,5,1.7C475.7,83.9,474.3,85,472.6,86.2z"/>
<path class="st9" d="M450.1,110.7c0,1.1,0.3,1.9,0,2.4c-0.7,1.6-1.6,3-2.4,4.5c-0.9-1.4-2.1-2.7-2.5-4.2c-0.4-1.9-0.4-4,0-5.9
	c0.3-1.4,1.5-2.5,2.4-3.8c0.9,1.3,1.8,2.6,2.5,4C450.4,108.5,450.1,109.4,450.1,110.7z"/>
<path class="st9" d="M450.3,129.5c0.1-2,0.3-3.7,0.5-5.4c1.3,1,3.2,1.7,3.8,2.9c1.1,2.3,5.5,4.9,1.6,7.3
	C452.8,136.4,452.3,131.6,450.3,129.5z"/>
<path class="st10" d="M508.7,33.5c0.9,1,1.5,1.9,1.7,2.8c0.4,2.8,1.8,6.5,0.6,8.1c-1.4,1.7-5.4,2.3-8.1,1.8
	c-7.4-1.3-13-5.5-16.4-12.8C493.7,33.3,501,33.3,508.7,33.5z"/>
</svg>
