<svg version="1.1" id="Layer_1" xmlns="http://www.w3.org/2000/svg" xmlns:xlink="http://www.w3.org/1999/xlink" x="0px" y="0px"
	 width="100%" viewBox="0 0 1060 242" enable-background="new 0 0 1060 242" xml:space="preserve">
<path fill="#FEFEFE" opacity="1.000000" stroke="none" 
	d="
M787.000000,243.000000 
	C524.666687,243.000000 262.833435,243.000000 1.000105,243.000000 
	C1.000070,162.333389 1.000070,81.666786 1.000035,1.000138 
	C354.333221,1.000092 707.666443,1.000092 1060.999756,1.000046 
	C1060.999756,81.666527 1060.999756,162.333054 1060.999878,242.999786 
	C969.833313,243.000000 878.666687,243.000000 787.000000,243.000000 
M172.418457,191.513672 
	C175.410431,191.354507 178.537521,191.667587 181.345215,190.864319 
	C183.112885,190.358597 185.605057,188.255493 185.699127,186.740265 
	C186.120651,179.950775 185.988464,173.104218 185.599411,166.304398 
	C185.511551,164.768814 183.595016,163.337860 182.520279,161.858749 
	C181.350418,163.434082 179.568192,164.862686 179.147675,166.617569 
	C178.436035,169.587341 178.585083,172.763367 178.372284,175.852676 
	C177.950806,176.063080 177.529343,176.273468 177.107864,176.483856 
	C170.410446,169.651062 163.676620,162.852875 157.085358,155.919174 
	C156.563385,155.370087 156.697540,153.732910 157.089310,152.851456 
	C160.950165,144.164627 164.930115,135.530762 169.071762,126.453430 
	C178.039352,126.453430 188.211624,126.453430 198.695663,126.453430 
	C196.194321,129.329880 193.759872,131.664719 191.947662,134.410233 
	C191.047058,135.774628 191.288452,137.892822 191.013229,139.670013 
	C192.968872,139.599136 195.603653,140.317749 196.762650,139.320770 
	C201.789688,134.996490 206.425491,130.210953 211.122025,125.511627 
	C213.399200,123.233116 213.271088,120.613739 211.143845,118.395515 
	C206.546661,113.601677 201.926270,108.803345 196.952255,104.418755 
	C195.872375,103.466843 193.266342,104.246262 191.363220,104.228256 
	C191.662750,106.138382 191.442688,108.369919 192.380173,109.885399 
	C193.891479,112.328476 196.165741,114.299583 198.776566,117.202667 
	C188.736115,117.202667 179.679947,117.366241 170.642227,117.031693 
	C169.237152,116.979691 167.285599,114.903313 166.661728,113.335350 
	C163.323730,104.945938 160.326767,96.420830 157.399628,88.453590 
	C163.693695,81.593460 170.404800,74.278801 178.115784,65.874329 
	C178.534271,70.824806 178.554871,74.264900 179.224258,77.573753 
	C179.536484,79.117104 181.105270,80.406258 182.104507,81.810631 
	C183.270599,80.424774 185.355011,79.096809 185.446640,77.643227 
	C185.885071,70.687485 186.046463,63.683289 185.665054,56.731503 
	C185.583023,55.236343 182.908356,52.752502 181.323135,52.666985 
	C174.546906,52.301395 167.719788,52.477047 160.939133,52.901279 
	C159.396484,52.997795 157.965134,54.873318 156.482559,55.930016 
	C158.060013,57.069851 159.495926,58.799747 161.246094,59.219570 
	C164.337601,59.961140 167.620514,59.904663 171.471878,60.238445 
	C164.489792,67.336555 158.182953,73.896255 151.646194,80.218246 
	C150.765564,81.069939 148.463455,81.344505 147.267792,80.834824 
	C138.653656,77.162827 130.155121,73.219612 121.195938,69.170776 
	C121.195938,60.260418 121.195938,50.337349 121.195938,39.628567 
	C124.019287,42.016758 126.176529,44.307289 128.774948,45.859077 
	C130.256851,46.744076 132.458420,46.424019 134.335938,46.646576 
	C134.193024,44.743881 134.792130,42.159031 133.778687,41.056633 
	C129.401642,36.295460 124.588051,31.930344 119.860619,27.498650 
	C117.352646,25.147568 114.799065,25.372879 112.417465,27.809078 
	C107.771919,32.561111 103.051758,37.244953 98.564384,42.142033 
	C97.839523,42.933075 97.598267,45.474876 98.100021,45.825947 
	C99.372925,46.716568 101.352859,47.440300 102.755013,47.080975 
	C104.370331,46.667015 105.689331,45.043518 107.100624,43.900383 
	C108.791695,42.530651 110.444321,41.113453 112.974106,38.996830 
	C112.974106,49.100628 113.163071,57.887348 112.792488,66.650406 
	C112.728973,68.152306 110.546730,70.135391 108.884834,70.900536 
	C101.513275,74.294426 94.001656,77.392555 86.470993,80.424522 
	C85.154953,80.954376 82.861183,81.337738 82.109116,80.630127 
	C75.295418,74.219238 68.724228,67.550606 61.392883,60.273418 
	C65.977997,59.845158 69.457458,59.787262 72.801575,59.084949 
	C74.273933,58.775734 75.471100,57.156082 76.793213,56.131401 
	C75.499489,54.879475 74.239395,52.591240 72.906456,52.547989 
	C65.612213,52.311317 58.293354,52.497337 51.000889,52.879917 
	C49.815044,52.942131 47.757137,54.690971 47.734303,55.697262 
	C47.561478,63.312778 47.661041,70.944344 48.044781,78.552277 
	C48.104179,79.729973 50.047718,80.812645 51.119938,81.939270 
	C52.077923,80.736237 53.596481,79.652512 53.882954,78.306557 
	C54.586235,75.002205 54.721901,71.577042 55.085907,68.200470 
	C55.654732,67.844574 56.223557,67.488678 56.792381,67.132782 
	C63.100559,74.792816 69.408737,82.452843 75.712402,90.107399 
	C73.445358,95.577515 69.499458,102.675758 67.684258,110.282463 
	C66.349464,115.876015 64.134224,117.649643 58.905010,117.528145 
	C51.042034,117.345451 43.171673,117.480568 34.606850,117.480568 
	C37.381752,113.949303 39.821896,111.224358 41.759800,108.179733 
	C42.476238,107.054153 42.011112,105.176521 42.084869,103.641876 
	C40.422512,103.653427 38.144871,102.963478 37.199581,103.792587 
	C31.839876,108.493538 26.593193,113.371323 21.810343,118.644516 
	C20.760294,119.802216 20.862486,123.568932 21.948414,124.826447 
	C26.394526,129.975113 31.275286,134.787613 36.358627,139.316925 
	C37.506367,140.339554 40.110603,139.727524 42.044373,139.867966 
	C41.815723,138.054260 42.132557,135.892349 41.243793,134.500015 
	C39.446747,131.684784 36.995499,129.287170 34.772602,126.668533 
	C45.458485,126.668533 55.696354,126.668533 64.732277,126.668533 
	C68.899460,136.873596 72.689102,146.154114 75.630615,153.357635 
	C68.695259,160.939529 61.946140,168.317825 54.895702,176.025528 
	C54.627399,172.517914 54.682220,169.323151 54.030243,166.279800 
	C53.678169,164.636337 52.117813,163.251724 51.102570,161.750320 
	C49.916481,163.110214 47.791473,164.412216 47.703449,165.839828 
	C47.274605,172.794617 47.292515,179.783905 47.358978,186.759033 
	C47.387733,189.776352 49.313309,191.113083 52.303833,191.078659 
	C58.786877,191.004059 65.290039,191.254883 71.741348,190.780045 
	C73.500977,190.650513 75.105530,188.414291 76.781250,187.144882 
	C75.055542,186.112000 73.438507,184.546951 71.579414,184.167313 
	C68.574837,183.553802 65.411057,183.719955 61.472969,183.512497 
	C68.724373,176.166214 75.160484,169.494797 81.839378,163.075989 
	C82.649757,162.297195 84.943741,162.414734 86.251991,162.907837 
	C93.967804,165.816086 101.624321,168.889633 109.226135,172.085129 
	C110.607849,172.665939 112.652733,174.039246 112.682716,175.095230 
	C112.952385,184.593216 112.840271,194.102036 112.840271,204.604980 
	C109.457268,201.614792 107.185547,199.086197 104.411247,197.370071 
	C102.982002,196.485947 100.658295,197.047821 98.738747,196.956299 
	C98.836578,198.597000 98.286476,200.800308 99.140785,201.784134 
	C103.605362,206.925720 108.212204,211.997620 113.279137,216.523239 
	C114.495941,217.610062 118.428429,217.432053 119.778786,216.277054 
	C124.818512,211.966400 129.464508,207.150864 133.884521,202.191666 
	C134.985229,200.956665 135.637894,197.686188 134.839493,196.718781 
	C132.884354,194.349762 130.440186,195.636719 128.420471,197.541946 
	C126.201302,199.635315 123.865318,201.604858 121.113625,204.041550 
	C121.113625,194.794281 120.872032,186.321564 121.280853,177.880341 
	C121.385063,175.728638 123.052605,172.617722 124.859222,171.765823 
	C131.983246,168.406647 139.410324,165.666580 146.820618,162.958588 
	C148.249786,162.436325 150.711472,162.431793 151.673401,163.309753 
	C158.388916,169.439026 164.835083,175.863403 171.367508,182.193283 
	C171.172363,182.615875 170.977219,183.038467 170.782089,183.461060 
	C167.212753,183.739624 163.600388,183.781052 160.095947,184.417160 
	C158.752975,184.660934 157.656525,186.262833 156.447723,187.245865 
	C157.646057,188.419449 158.703094,190.368668 160.069855,190.617661 
	C163.810272,191.299026 167.681107,191.264618 172.418457,191.513672 
M756.830933,108.481453 
	C761.691101,109.611633 763.530334,113.031738 763.654541,117.648415 
	C763.744080,120.978828 763.682434,124.313377 763.683167,127.646080 
	C763.684937,135.725723 763.683777,143.805374 763.683777,151.874908 
	C768.132141,151.874908 771.907654,151.874908 776.081360,151.874908 
	C776.081360,140.720169 775.994080,129.765259 776.113403,118.812592 
	C776.187256,112.031639 779.975220,108.139832 786.038452,108.182655 
	C791.966980,108.224525 795.045105,111.825890 795.055786,118.804825 
	C795.072571,129.758102 795.060242,140.711411 795.060242,151.795059 
	C799.543762,151.795059 803.594055,151.795059 807.795898,151.795059 
	C807.795898,138.711105 808.211548,125.893829 807.668823,113.117264 
	C807.206970,102.244926 798.893188,96.293732 788.153015,97.699394 
	C781.902588,98.517448 777.699951,101.950401 774.398010,107.318947 
	C771.412231,100.658852 766.495850,97.549973 759.671997,97.493721 
	C752.821350,97.437248 747.924194,100.851891 743.952026,107.857117 
	C743.952026,103.762596 743.952026,101.161858 743.952026,98.378876 
	C739.911499,98.378876 736.167480,98.378876 732.243286,98.378876 
	C732.243286,116.334747 732.243286,134.064911 732.243286,151.845856 
	C736.418518,151.845856 740.338745,151.845856 744.710938,151.845856 
	C744.710938,149.991043 744.710815,148.365799 744.710938,146.740555 
	C744.711426,137.742050 744.591248,128.741425 744.749451,119.745682 
	C744.885010,112.036072 748.545044,108.495392 756.830933,108.481453 
M820.680725,144.499512 
	C820.680725,153.619766 820.680725,162.740005 820.680725,171.854828 
	C825.221863,171.854828 829.295166,171.854828 833.904419,171.854828 
	C833.904419,162.700897 833.904419,153.859451 833.904419,144.428314 
	C843.878357,155.686600 857.519226,155.712616 865.944153,145.105560 
	C873.825256,135.183212 873.800842,115.145477 865.768494,105.250504 
	C860.899048,99.251892 854.365845,95.982719 846.873352,97.964470 
	C841.881531,99.284813 837.494385,102.891403 832.863892,105.459625 
	C832.863892,103.759941 832.863892,101.053566 832.863892,98.381226 
	C828.618774,98.381226 824.858154,98.381226 820.680725,98.381226 
	C820.680725,113.571419 820.680725,128.535461 820.680725,144.499512 
M414.976074,138.267563 
	C417.509979,130.653564 417.871643,122.874657 415.864410,115.168335 
	C413.640625,106.630501 408.829590,100.141701 399.697693,97.982346 
	C391.359955,96.010788 384.621216,98.320549 379.890350,105.714035 
	C379.792389,105.867165 379.334930,105.790268 378.663147,105.860802 
	C378.663147,103.389801 378.663147,100.969002 378.663147,98.431076 
	C374.255249,98.431076 370.237457,98.431076 366.357788,98.431076 
	C366.357788,123.199715 366.357788,147.591721 366.357788,171.919891 
	C370.590454,171.919891 374.517700,171.919891 378.953857,171.919891 
	C378.953857,162.659439 378.953857,153.648087 378.953857,143.273026 
	C383.968811,151.493057 390.365356,154.058441 398.298676,152.764923 
	C406.434631,151.438400 411.485504,146.263168 414.976074,138.267563 
M618.200256,137.458496 
	C609.666138,129.282104 609.088684,119.074020 610.956787,108.354660 
	C612.673706,98.502869 619.136047,91.990349 627.718384,91.078415 
	C637.601990,90.028206 643.562622,93.990089 647.617920,104.210022 
	C651.754150,104.210022 655.832947,104.210022 660.230957,104.210022 
	C660.005798,102.733292 659.939148,101.587761 659.649475,100.501732 
	C653.998108,79.315292 625.300598,71.757118 608.571533,87.003036 
	C598.543640,96.141891 596.175049,107.975967 597.154419,120.681442 
	C598.964355,144.163208 617.534729,157.693695 639.425964,152.013092 
	C651.705444,148.826675 660.769043,136.222321 659.642822,128.369125 
	C655.571533,128.369125 651.469849,128.369125 647.443176,128.369125 
	C643.069214,141.206833 630.883545,145.182266 618.200256,137.458496 
M244.552170,143.951248 
	C254.997009,153.819656 267.295349,155.449844 280.196899,150.650574 
	C290.114197,146.961456 296.046906,139.211777 297.924927,128.056549 
	C294.263489,128.056549 291.077637,127.792969 287.971619,128.176254 
	C286.578430,128.348175 284.688538,129.524384 284.148956,130.742981 
	C281.300537,137.175842 276.519226,140.567078 269.577667,141.142624 
	C261.963623,141.773911 255.379791,139.465546 251.739761,132.658600 
	C245.778046,121.510056 245.722748,109.907066 252.226028,98.902130 
	C256.070801,92.395950 262.600739,90.275131 269.917786,91.020950 
	C276.743713,91.716713 281.729034,95.064445 284.148163,101.804764 
	C284.507782,102.806763 285.713501,104.138336 286.609375,104.204010 
	C290.307983,104.475151 294.037994,104.317619 297.914673,104.317619 
	C294.799683,89.583305 286.957581,81.938309 273.205841,79.540031 
	C259.860168,77.212570 247.000031,82.835785 240.037766,93.933365 
	C232.223587,106.388855 231.866653,131.075333 244.552170,143.951248 
M890.557129,100.916328 
	C886.251953,103.446724 883.365662,107.015976 882.039307,112.296356 
	C883.819763,112.570244 885.278137,112.716408 886.700073,113.028229 
	C890.670898,113.898941 893.851624,114.081886 896.984375,110.047112 
	C898.640137,107.914635 903.266357,107.406975 906.557373,107.391136 
	C911.088928,107.369316 914.108337,111.090752 913.893188,115.221764 
	C913.652222,119.849167 909.782715,119.245354 906.885254,119.826607 
	C901.205627,120.966011 895.320312,121.387955 889.834595,123.109154 
	C882.777588,125.323418 879.863159,130.318970 880.054199,137.578735 
	C880.242065,144.717880 884.007263,149.968536 890.878235,152.041992 
	C899.643738,154.687180 907.554260,153.402618 913.982422,145.452789 
	C914.230103,148.078934 914.407776,149.963303 914.587158,151.865875 
	C918.697449,151.865875 922.471863,151.865875 926.514221,151.865875 
	C926.588928,150.199905 926.711609,148.739777 926.710754,147.279694 
	C926.704041,135.947296 927.057800,124.596275 926.510071,113.289291 
	C926.166809,106.203041 921.722900,101.325935 914.930359,99.101974 
	C906.886169,96.468246 898.908386,96.725319 890.557129,100.916328 
M512.615479,107.087395 
	C513.114685,107.087563 513.621094,107.032433 514.112000,107.096367 
	C519.673462,107.820625 522.747681,110.673820 522.419006,115.141434 
	C522.040771,120.282814 517.618713,119.254623 514.475098,119.900200 
	C509.448334,120.932510 504.243134,121.268822 499.337769,122.679619 
	C491.845032,124.834526 488.828796,129.385864 488.821075,137.034622 
	C488.813416,144.625626 492.342194,149.897018 499.526764,151.989594 
	C508.415588,154.578537 516.526367,153.411514 523.052979,144.634583 
	C523.052979,147.711914 523.052979,149.656784 523.052979,151.739578 
	C527.194092,151.739578 531.066956,151.739578 535.081848,151.739578 
	C535.081848,139.933380 535.082886,128.461960 535.080078,116.990540 
	C535.079834,115.992371 535.091370,114.992104 535.034668,113.996376 
	C534.635559,106.989670 531.121338,101.958054 524.712952,99.430748 
	C517.354126,96.528572 509.691925,96.442390 502.290100,99.363640 
	C496.561981,101.624336 492.301239,105.519562 490.725525,112.213013 
	C496.372528,112.866615 501.824890,116.077827 505.969360,109.410141 
	C506.849976,107.993347 509.807861,107.867744 512.615479,107.087395 
M345.464325,100.925240 
	C333.822845,93.620613 311.321777,97.490097 309.092896,112.213921 
	C310.338806,112.461014 311.597290,112.738152 312.865814,112.957085 
	C316.916168,113.656128 320.220337,114.053474 323.706055,109.984085 
	C325.693359,107.664070 331.241058,107.681595 335.117035,107.894379 
	C338.898804,108.101990 340.504822,111.544930 340.512878,115.182823 
	C340.521667,119.149117 337.137085,119.224213 334.454620,119.694374 
	C329.391327,120.581825 324.198975,120.862793 319.215790,122.049179 
	C309.839020,124.281593 305.920105,130.170151 306.951599,139.562256 
	C307.777985,147.086731 313.961182,152.379623 322.459473,153.036621 
	C329.788818,153.603241 336.065369,151.674149 340.831696,144.705994 
	C340.970123,147.798279 341.057190,149.743271 341.149323,151.801605 
	C345.180878,151.801605 348.932739,151.801605 353.178497,151.801605 
	C353.178497,139.503403 353.142761,127.409630 353.193787,115.316223 
	C353.218750,109.394394 351.018494,104.673729 345.464325,100.925240 
M669.471863,125.503769 
	C669.591858,134.741913 672.012085,143.117340 680.000305,148.562225 
	C689.205078,154.836365 699.304260,155.198730 708.811218,149.741394 
	C719.921265,143.363739 722.162781,132.374039 720.882202,120.677254 
	C719.757629,110.405579 714.793091,102.231873 704.401733,98.961075 
	C688.505676,93.957588 670.102112,101.308014 669.471863,125.503769 
M1031.458130,103.055725 
	C1023.182373,96.537903 1010.137085,95.488060 1000.923035,100.553329 
	C994.851074,103.891304 992.281189,109.218918 992.767639,115.866394 
	C993.187195,121.599403 996.957764,125.086754 1002.052917,127.169327 
	C1004.034546,127.979301 1006.134949,128.529327 1008.216980,129.056641 
	C1012.238403,130.075165 1016.437195,130.610138 1020.253845,132.123734 
	C1022.018250,132.823410 1024.121094,135.346542 1024.129517,137.052521 
	C1024.138184,138.799561 1022.137268,141.205978 1020.380615,142.192520 
	C1014.730042,145.365891 1008.082397,143.381531 1004.274658,138.081390 
	C1003.655640,137.219696 1002.304382,136.335327 1001.331055,136.377335 
	C998.099609,136.516815 994.886108,137.074310 991.593079,137.480469 
	C991.971802,142.908051 994.810608,146.472168 998.796448,149.195969 
	C1006.933228,154.756577 1022.575256,154.460480 1030.609009,148.715424 
	C1036.539185,144.474625 1039.088257,137.503510 1036.723145,131.241318 
	C1034.224365,124.624802 1028.235596,122.770935 1022.182861,121.203415 
	C1018.008118,120.122246 1013.643188,119.590019 1009.657654,118.050499 
	C1007.960022,117.394760 1005.995605,114.784752 1006.010986,113.079605 
	C1006.026550,111.356552 1007.985413,108.962418 1009.715942,108.069687 
	C1015.421326,105.126419 1020.577393,107.135590 1025.350464,113.579941 
	C1028.862915,113.213768 1032.405762,112.844437 1037.159058,112.348915 
	C1035.081543,108.834015 1033.526001,106.202301 1031.458130,103.055725 
M976.823364,124.557823 
	C973.714417,123.422134 970.654602,122.117661 967.484009,121.193489 
	C963.515442,120.036697 959.311523,119.557915 955.498535,118.053337 
	C953.689453,117.339508 951.284363,114.804604 951.426025,113.310555 
	C951.608704,111.383820 953.713928,108.937744 955.621460,108.006615 
	C961.555054,105.110260 966.352356,107.083374 971.084229,113.622047 
	C974.639587,113.220375 978.195007,112.818710 983.584900,112.209778 
	C980.146301,107.846657 978.105042,103.899590 974.907898,101.479637 
	C968.042969,96.283501 959.896240,96.583420 951.968567,98.524429 
	C942.975647,100.726265 938.610779,106.186043 938.678223,114.147766 
	C938.742004,121.676788 942.817017,126.223610 951.922913,128.596909 
	C955.939392,129.643723 960.247986,129.847549 964.037354,131.386276 
	C966.413147,132.350998 969.279663,134.822723 969.774536,137.088257 
	C970.582947,140.789276 967.106750,142.331131 963.846802,143.080582 
	C956.811279,144.698013 953.534302,143.202087 948.616272,136.217010 
	C944.871704,136.610275 941.106140,137.005737 935.813110,137.561615 
	C938.565613,141.576233 940.268616,145.483414 943.169556,148.021393 
	C951.496826,155.306808 969.166870,154.717102 977.684082,147.709473 
	C984.230469,142.323380 985.867615,129.692596 976.823364,124.557823 
M475.733032,142.008789 
	C472.077179,142.081268 470.081879,140.272079 470.056427,136.636688 
	C469.990356,127.201134 470.034271,117.764816 470.034271,107.748947 
	C473.755737,107.748947 477.120361,107.748947 480.433868,107.748947 
	C480.433868,104.236229 480.433868,101.318550 480.433868,98.036331 
	C476.900818,98.036331 473.649658,98.036331 469.993286,98.036331 
	C469.993286,93.602821 469.993286,89.522064 469.993286,85.386574 
	C465.535522,85.386574 461.501495,85.386574 457.008698,85.386574 
	C457.008698,89.780113 457.008698,93.853249 457.008698,98.117538 
	C454.407288,98.117538 452.270966,98.117538 449.907043,98.117538 
	C449.907043,101.428886 449.907043,104.530151 449.907043,108.030075 
	C452.346893,108.030075 454.598267,108.030075 456.564117,108.030075 
	C456.910828,108.563194 457.075012,108.697876 457.075500,108.833138 
	C457.108429,117.976624 457.117950,127.120193 457.151459,136.263672 
	C457.201294,149.866943 468.755402,156.963531 481.385376,150.896820 
	C480.965759,148.863022 480.852325,146.619431 479.983429,144.721741 
	C479.441162,143.537491 477.758820,142.875229 475.733032,142.008789 
M560.722168,113.500122 
	C560.722168,102.549507 560.722168,91.598900 560.722168,80.491859 
	C556.210754,80.491859 552.183105,80.491859 548.337524,80.491859 
	C548.337524,104.566093 548.337524,128.291611 548.337524,151.742813 
	C552.613037,151.742813 556.532349,151.742813 560.722168,151.742813 
	C560.722168,139.099289 560.722168,126.799713 560.722168,113.500122 
M427.910919,139.490646 
	C427.910919,143.592010 427.910919,147.693359 427.910919,151.718018 
	C432.457550,151.718018 436.369751,151.718018 440.372711,151.718018 
	C440.372711,133.693283 440.372711,115.972961 440.372711,98.318512 
	C436.079712,98.318512 432.144226,98.318512 427.910919,98.318512 
	C427.910919,111.886093 427.910919,125.189346 427.910919,139.490646 
M436.610870,76.976288 
	C432.877197,76.260094 429.314453,76.809738 427.872986,80.613693 
	C427.130707,82.572464 427.253479,85.991814 428.503357,87.292786 
	C430.154938,89.011894 433.504395,90.350319 435.736176,89.905647 
	C437.916809,89.471176 440.418762,86.921669 441.328827,84.704979 
	C442.721283,81.313370 440.235535,78.865868 436.610870,76.976288 
z"/>
<path fill="#040404" opacity="1.000000" stroke="none" 
	d="
M171.959381,191.513641 
	C167.681107,191.264618 163.810272,191.299026 160.069855,190.617661 
	C158.703094,190.368668 157.646057,188.419449 156.447723,187.245865 
	C157.656525,186.262833 158.752975,184.660934 160.095947,184.417160 
	C163.600388,183.781052 167.212753,183.739624 170.782089,183.461060 
	C170.977219,183.038467 171.172363,182.615875 171.367508,182.193283 
	C164.835083,175.863403 158.388916,169.439026 151.673401,163.309753 
	C150.711472,162.431793 148.249786,162.436325 146.820618,162.958588 
	C139.410324,165.666580 131.983246,168.406647 124.859222,171.765823 
	C123.052605,172.617722 121.385063,175.728638 121.280853,177.880341 
	C120.872032,186.321564 121.113625,194.794281 121.113625,204.041550 
	C123.865318,201.604858 126.201302,199.635315 128.420471,197.541946 
	C130.440186,195.636719 132.884354,194.349762 134.839493,196.718781 
	C135.637894,197.686188 134.985229,200.956665 133.884521,202.191666 
	C129.464508,207.150864 124.818512,211.966400 119.778786,216.277054 
	C118.428429,217.432053 114.495941,217.610062 113.279137,216.523239 
	C108.212204,211.997620 103.605362,206.925720 99.140785,201.784134 
	C98.286476,200.800308 98.836578,198.597000 98.738747,196.956299 
	C100.658295,197.047821 102.982002,196.485947 104.411247,197.370071 
	C107.185547,199.086197 109.457268,201.614792 112.840271,204.604980 
	C112.840271,194.102036 112.952385,184.593216 112.682716,175.095230 
	C112.652733,174.039246 110.607849,172.665939 109.226135,172.085129 
	C101.624321,168.889633 93.967804,165.816086 86.251991,162.907837 
	C84.943741,162.414734 82.649757,162.297195 81.839378,163.075989 
	C75.160484,169.494797 68.724373,176.166214 61.472969,183.512497 
	C65.411057,183.719955 68.574837,183.553802 71.579414,184.167313 
	C73.438507,184.546951 75.055542,186.112000 76.781250,187.144882 
	C75.105530,188.414291 73.500977,190.650513 71.741348,190.780045 
	C65.290039,191.254883 58.786877,191.004059 52.303833,191.078659 
	C49.313309,191.113083 47.387733,189.776352 47.358978,186.759033 
	C47.292515,179.783905 47.274605,172.794617 47.703449,165.839828 
	C47.791473,164.412216 49.916481,163.110214 51.102570,161.750320 
	C52.117813,163.251724 53.678169,164.636337 54.030243,166.279800 
	C54.682220,169.323151 54.627399,172.517914 54.895702,176.025528 
	C61.946140,168.317825 68.695259,160.939529 75.630615,153.357635 
	C72.689102,146.154114 68.899460,136.873596 64.732277,126.668533 
	C55.696354,126.668533 45.458485,126.668533 34.772602,126.668533 
	C36.995499,129.287170 39.446747,131.684784 41.243793,134.500015 
	C42.132557,135.892349 41.815723,138.054260 42.044373,139.867966 
	C40.110603,139.727524 37.506367,140.339554 36.358627,139.316925 
	C31.275286,134.787613 26.394526,129.975113 21.948414,124.826447 
	C20.862486,123.568932 20.760294,119.802216 21.810343,118.644516 
	C26.593193,113.371323 31.839876,108.493538 37.199581,103.792587 
	C38.144871,102.963478 40.422512,103.653427 42.084869,103.641876 
	C42.011112,105.176521 42.476238,107.054153 41.759800,108.179733 
	C39.821896,111.224358 37.381752,113.949303 34.606850,117.480568 
	C43.171673,117.480568 51.042034,117.345451 58.905010,117.528145 
	C64.134224,117.649643 66.349464,115.876015 67.684258,110.282463 
	C69.499458,102.675758 73.445358,95.577515 75.712402,90.107399 
	C69.408737,82.452843 63.100559,74.792816 56.792381,67.132782 
	C56.223557,67.488678 55.654732,67.844574 55.085907,68.200470 
	C54.721901,71.577042 54.586235,75.002205 53.882954,78.306557 
	C53.596481,79.652512 52.077923,80.736237 51.119938,81.939270 
	C50.047718,80.812645 48.104179,79.729973 48.044781,78.552277 
	C47.661041,70.944344 47.561478,63.312778 47.734303,55.697262 
	C47.757137,54.690971 49.815044,52.942131 51.000889,52.879917 
	C58.293354,52.497337 65.612213,52.311317 72.906456,52.547989 
	C74.239395,52.591240 75.499489,54.879475 76.793213,56.131401 
	C75.471100,57.156082 74.273933,58.775734 72.801575,59.084949 
	C69.457458,59.787262 65.977997,59.845158 61.392883,60.273418 
	C68.724228,67.550606 75.295418,74.219238 82.109116,80.630127 
	C82.861183,81.337738 85.154953,80.954376 86.470993,80.424522 
	C94.001656,77.392555 101.513275,74.294426 108.884834,70.900536 
	C110.546730,70.135391 112.728973,68.152306 112.792488,66.650406 
	C113.163071,57.887348 112.974106,49.100628 112.974106,38.996830 
	C110.444321,41.113453 108.791695,42.530651 107.100624,43.900383 
	C105.689331,45.043518 104.370331,46.667015 102.755013,47.080975 
	C101.352859,47.440300 99.372925,46.716568 98.100021,45.825947 
	C97.598267,45.474876 97.839523,42.933075 98.564384,42.142033 
	C103.051758,37.244953 107.771919,32.561111 112.417465,27.809078 
	C114.799065,25.372879 117.352646,25.147568 119.860619,27.498650 
	C124.588051,31.930344 129.401642,36.295460 133.778687,41.056633 
	C134.792130,42.159031 134.193024,44.743881 134.335938,46.646576 
	C132.458420,46.424019 130.256851,46.744076 128.774948,45.859077 
	C126.176529,44.307289 124.019287,42.016758 121.195938,39.628567 
	C121.195938,50.337349 121.195938,60.260418 121.195938,69.170776 
	C130.155121,73.219612 138.653656,77.162827 147.267792,80.834824 
	C148.463455,81.344505 150.765564,81.069939 151.646194,80.218246 
	C158.182953,73.896255 164.489792,67.336555 171.471878,60.238445 
	C167.620514,59.904663 164.337601,59.961140 161.246094,59.219570 
	C159.495926,58.799747 158.060013,57.069851 156.482559,55.930016 
	C157.965134,54.873318 159.396484,52.997795 160.939133,52.901279 
	C167.719788,52.477047 174.546906,52.301395 181.323135,52.666985 
	C182.908356,52.752502 185.583023,55.236343 185.665054,56.731503 
	C186.046463,63.683289 185.885071,70.687485 185.446640,77.643227 
	C185.355011,79.096809 183.270599,80.424774 182.104507,81.810631 
	C181.105270,80.406258 179.536484,79.117104 179.224258,77.573753 
	C178.554871,74.264900 178.534271,70.824806 178.115784,65.874329 
	C170.404800,74.278801 163.693695,81.593460 157.399628,88.453590 
	C160.326767,96.420830 163.323730,104.945938 166.661728,113.335350 
	C167.285599,114.903313 169.237152,116.979691 170.642227,117.031693 
	C179.679947,117.366241 188.736115,117.202667 198.776566,117.202667 
	C196.165741,114.299583 193.891479,112.328476 192.380173,109.885399 
	C191.442688,108.369919 191.662750,106.138382 191.363220,104.228256 
	C193.266342,104.246262 195.872375,103.466843 196.952255,104.418755 
	C201.926270,108.803345 206.546661,113.601677 211.143845,118.395515 
	C213.271088,120.613739 213.399200,123.233116 211.122025,125.511627 
	C206.425491,130.210953 201.789688,134.996490 196.762650,139.320770 
	C195.603653,140.317749 192.968872,139.599136 191.013245,139.670013 
	C191.288452,137.892822 191.047058,135.774628 191.947662,134.410233 
	C193.759872,131.664719 196.194321,129.329880 198.695663,126.453430 
	C188.211624,126.453430 178.039352,126.453430 169.071762,126.453430 
	C164.930115,135.530762 160.950165,144.164627 157.089310,152.851456 
	C156.697540,153.732910 156.563385,155.370087 157.085358,155.919174 
	C163.676620,162.852875 170.410446,169.651062 177.107864,176.483856 
	C177.529343,176.273468 177.950806,176.063080 178.372284,175.852676 
	C178.585083,172.763367 178.436035,169.587341 179.147675,166.617569 
	C179.568192,164.862686 181.350418,163.434082 182.520279,161.858749 
	C183.595016,163.337860 185.511551,164.768814 185.599411,166.304398 
	C185.988464,173.104218 186.120651,179.950775 185.699127,186.740265 
	C185.605057,188.255493 183.112885,190.358597 181.345215,190.864319 
	C178.537521,191.667587 175.410431,191.354507 171.959381,191.513641 
M112.948448,126.846153 
	C115.412743,127.208145 118.166039,127.022873 120.242439,128.119385 
	C121.691452,128.884598 122.746834,131.356201 122.914055,133.164001 
	C122.992378,134.010803 120.471130,136.004349 119.277718,135.891739 
	C115.765808,135.560379 112.359917,134.235687 108.851891,133.688614 
	C106.354378,133.299133 103.758858,133.538208 101.207069,133.496765 
	C101.383095,135.863525 100.962975,138.507523 101.899254,140.520706 
	C102.876762,142.622513 105.204254,144.076813 106.859818,145.888870 
	C108.321136,147.488342 109.529434,149.341888 111.106514,150.806442 
	C112.791695,152.371384 114.681702,154.506226 116.662361,154.719391 
	C118.330437,154.898911 120.523544,152.945877 122.003922,151.458710 
	C124.053825,149.399399 125.397644,146.621552 127.499298,144.632721 
	C131.887405,140.480179 135.597107,136.156723 134.153915,129.561081 
	C132.565720,122.302780 128.159943,117.974922 120.687805,116.747421 
	C117.767014,116.267601 114.797752,115.550758 112.127159,114.334518 
	C111.016129,113.828537 110.068260,111.720520 110.104996,110.369789 
	C110.130013,109.449753 112.078049,107.738808 113.017601,107.834869 
	C116.797440,108.221352 120.493286,109.396523 124.271835,109.839539 
	C126.862770,110.143318 129.539017,109.719490 132.177124,109.620918 
	C131.942291,107.354729 132.352173,104.716202 131.311981,102.915138 
	C129.964401,100.581825 127.417282,98.958321 125.470963,96.947556 
	C124.259064,95.695541 122.473564,94.413803 122.227341,92.932350 
	C121.695587,89.732941 119.932213,88.214729 117.184067,88.923355 
	C114.950439,89.499306 112.827835,91.125542 111.065567,92.734589 
	C109.320648,94.327797 108.416809,96.919693 106.568855,98.307785 
	C101.377586,102.207184 97.930412,106.947205 99.324722,113.588989 
	C100.762802,120.439270 104.970070,125.155182 112.948448,126.846153 
z"/>
<path fill="#050505" opacity="1.000000" stroke="none" 
	d="
M756.454224,108.391953 
	C748.545044,108.495392 744.885010,112.036072 744.749451,119.745682 
	C744.591248,128.741425 744.711426,137.742050 744.710938,146.740555 
	C744.710815,148.365799 744.710938,149.991043 744.710938,151.845856 
	C740.338745,151.845856 736.418518,151.845856 732.243286,151.845856 
	C732.243286,134.064911 732.243286,116.334747 732.243286,98.378876 
	C736.167480,98.378876 739.911499,98.378876 743.952026,98.378876 
	C743.952026,101.161858 743.952026,103.762596 743.952026,107.857117 
	C747.924194,100.851891 752.821350,97.437248 759.671997,97.493721 
	C766.495850,97.549973 771.412231,100.658852 774.398010,107.318947 
	C777.699951,101.950401 781.902588,98.517448 788.153015,97.699394 
	C798.893188,96.293732 807.206970,102.244926 807.668823,113.117264 
	C808.211548,125.893829 807.795898,138.711105 807.795898,151.795059 
	C803.594055,151.795059 799.543762,151.795059 795.060242,151.795059 
	C795.060242,140.711411 795.072571,129.758102 795.055786,118.804825 
	C795.045105,111.825890 791.966980,108.224525 786.038452,108.182655 
	C779.975220,108.139832 776.187256,112.031639 776.113403,118.812592 
	C775.994080,129.765259 776.081360,140.720169 776.081360,151.874908 
	C771.907654,151.874908 768.132141,151.874908 763.683777,151.874908 
	C763.683777,143.805374 763.684937,135.725723 763.683167,127.646080 
	C763.682434,124.313377 763.744080,120.978828 763.654541,117.648415 
	C763.530334,113.031738 761.691101,109.611633 756.454224,108.391953 
z"/>
<path fill="#060606" opacity="1.000000" stroke="none" 
	d="
M820.680725,143.999512 
	C820.680725,128.535461 820.680725,113.571419 820.680725,98.381226 
	C824.858154,98.381226 828.618774,98.381226 832.863892,98.381226 
	C832.863892,101.053566 832.863892,103.759941 832.863892,105.459625 
	C837.494385,102.891403 841.881531,99.284813 846.873352,97.964470 
	C854.365845,95.982719 860.899048,99.251892 865.768494,105.250504 
	C873.800842,115.145477 873.825256,135.183212 865.944153,145.105560 
	C857.519226,155.712616 843.878357,155.686600 833.904419,144.428314 
	C833.904419,153.859451 833.904419,162.700897 833.904419,171.854828 
	C829.295166,171.854828 825.221863,171.854828 820.680725,171.854828 
	C820.680725,162.740005 820.680725,153.619766 820.680725,143.999512 
M854.020081,139.568024 
	C859.647034,132.501343 859.790527,124.590797 857.309082,116.431015 
	C855.644714,110.958038 851.564758,108.020927 846.300049,107.933395 
	C840.826904,107.842400 836.989563,110.380424 834.874817,115.840088 
	C832.638000,121.614952 832.569946,127.531479 834.545898,133.399216 
	C837.635193,142.572769 845.138733,145.176804 854.020081,139.568024 
z"/>
<path fill="#070707" opacity="1.000000" stroke="none" 
	d="
M414.852417,138.638245 
	C411.485504,146.263168 406.434631,151.438400 398.298676,152.764923 
	C390.365356,154.058441 383.968811,151.493057 378.953857,143.273026 
	C378.953857,153.648087 378.953857,162.659439 378.953857,171.919891 
	C374.517700,171.919891 370.590454,171.919891 366.357788,171.919891 
	C366.357788,147.591721 366.357788,123.199715 366.357788,98.431076 
	C370.237457,98.431076 374.255249,98.431076 378.663147,98.431076 
	C378.663147,100.969002 378.663147,103.389801 378.663147,105.860802 
	C379.334930,105.790268 379.792389,105.867165 379.890350,105.714035 
	C384.621216,98.320549 391.359955,96.010788 399.697693,97.982346 
	C408.829590,100.141701 413.640625,106.630501 415.864410,115.168335 
	C417.871643,122.874657 417.509979,130.653564 414.852417,138.638245 
M400.975494,137.294846 
	C404.660126,130.832962 404.792633,123.992256 402.893829,117.041679 
	C401.407776,111.602112 397.308411,108.229752 392.330536,107.943420 
	C386.282135,107.595490 381.575409,109.984154 380.250854,116.011765 
	C379.045837,121.495438 378.603638,127.690285 379.907837,133.066422 
	C382.468353,143.621338 392.855194,145.729279 400.975494,137.294846 
z"/>
<path fill="#060606" opacity="1.000000" stroke="none" 
	d="
M618.500061,137.683685 
	C630.883545,145.182266 643.069214,141.206833 647.443176,128.369125 
	C651.469849,128.369125 655.571533,128.369125 659.642822,128.369125 
	C660.769043,136.222321 651.705444,148.826675 639.425964,152.013092 
	C617.534729,157.693695 598.964355,144.163208 597.154419,120.681442 
	C596.175049,107.975967 598.543640,96.141891 608.571533,87.003036 
	C625.300598,71.757118 653.998108,79.315292 659.649475,100.501732 
	C659.939148,101.587761 660.005798,102.733292 660.230957,104.210022 
	C655.832947,104.210022 651.754150,104.210022 647.617920,104.210022 
	C643.562622,93.990089 637.601990,90.028206 627.718384,91.078415 
	C619.136047,91.990349 612.673706,98.502869 610.956787,108.354660 
	C609.088684,119.074020 609.666138,129.282104 618.500061,137.683685 
z"/>
<path fill="#060606" opacity="1.000000" stroke="none" 
	d="
M244.302063,143.697433 
	C231.866653,131.075333 232.223587,106.388855 240.037766,93.933365 
	C247.000031,82.835785 259.860168,77.212570 273.205841,79.540031 
	C286.957581,81.938309 294.799683,89.583305 297.914673,104.317619 
	C294.037994,104.317619 290.307983,104.475151 286.609375,104.204010 
	C285.713501,104.138336 284.507782,102.806763 284.148163,101.804764 
	C281.729034,95.064445 276.743713,91.716713 269.917786,91.020950 
	C262.600739,90.275131 256.070801,92.395950 252.226028,98.902130 
	C245.722748,109.907066 245.778046,121.510056 251.739761,132.658600 
	C255.379791,139.465546 261.963623,141.773911 269.577667,141.142624 
	C276.519226,140.567078 281.300537,137.175842 284.148956,130.742981 
	C284.688538,129.524384 286.578430,128.348175 287.971619,128.176254 
	C291.077637,127.792969 294.263489,128.056549 297.924927,128.056549 
	C296.046906,139.211777 290.114197,146.961456 280.196899,150.650574 
	C267.295349,155.449844 254.997009,153.819656 244.302063,143.697433 
z"/>
<path fill="#070707" opacity="1.000000" stroke="none" 
	d="
M890.877808,100.723381 
	C898.908386,96.725319 906.886169,96.468246 914.930359,99.101974 
	C921.722900,101.325935 926.166809,106.203041 926.510071,113.289291 
	C927.057800,124.596275 926.704041,135.947296 926.710754,147.279694 
	C926.711609,148.739777 926.588928,150.199905 926.514221,151.865875 
	C922.471863,151.865875 918.697449,151.865875 914.587158,151.865875 
	C914.407776,149.963303 914.230103,148.078934 913.982422,145.452789 
	C907.554260,153.402618 899.643738,154.687180 890.878235,152.041992 
	C884.007263,149.968536 880.242065,144.717880 880.054199,137.578735 
	C879.863159,130.318970 882.777588,125.323418 889.834595,123.109154 
	C895.320312,121.387955 901.205627,120.966011 906.885254,119.826607 
	C909.782715,119.245354 913.652222,119.849167 913.893188,115.221764 
	C914.108337,111.090752 911.088928,107.369316 906.557373,107.391136 
	C903.266357,107.406975 898.640137,107.914635 896.984375,110.047112 
	C893.851624,114.081886 890.670898,113.898941 886.700073,113.028229 
	C885.278137,112.716408 883.819763,112.570244 882.039307,112.296356 
	C883.365662,107.015976 886.251953,103.446724 890.877808,100.723381 
M905.171875,128.727325 
	C903.217712,129.037170 901.236267,129.230759 899.315002,129.680969 
	C895.267700,130.629349 892.167419,132.624466 892.435486,137.373428 
	C892.659302,141.337860 895.904541,143.674057 901.027344,143.833862 
	C910.415588,144.126724 914.937744,138.160690 913.707458,126.981209 
	C911.132019,127.488373 908.563782,127.994118 905.171875,128.727325 
z"/>
<path fill="#050505" opacity="1.000000" stroke="none" 
	d="
M512.212097,107.117325 
	C509.807861,107.867744 506.849976,107.993347 505.969360,109.410141 
	C501.824890,116.077827 496.372528,112.866615 490.725525,112.213013 
	C492.301239,105.519562 496.561981,101.624336 502.290100,99.363640 
	C509.691925,96.442390 517.354126,96.528572 524.712952,99.430748 
	C531.121338,101.958054 534.635559,106.989670 535.034668,113.996376 
	C535.091370,114.992104 535.079834,115.992371 535.080078,116.990540 
	C535.082886,128.461960 535.081848,139.933380 535.081848,151.739578 
	C531.066956,151.739578 527.194092,151.739578 523.052979,151.739578 
	C523.052979,149.656784 523.052979,147.711914 523.052979,144.634583 
	C516.526367,153.411514 508.415588,154.578537 499.526764,151.989594 
	C492.342194,149.897018 488.813416,144.625626 488.821075,137.034622 
	C488.828796,129.385864 491.845032,124.834526 499.337769,122.679619 
	C504.243134,121.268822 509.448334,120.932510 514.475098,119.900200 
	C517.618713,119.254623 522.040771,120.282814 522.419006,115.141434 
	C522.747681,110.673820 519.673462,107.820625 514.112000,107.096367 
	C513.621094,107.032433 513.114685,107.087563 512.212097,107.117325 
M522.707520,128.815796 
	C522.323181,128.213715 521.833313,127.044289 521.570129,127.093262 
	C516.229736,128.087082 510.718292,128.694473 505.689972,130.577728 
	C503.596527,131.361786 501.234894,135.016983 501.388519,137.197998 
	C501.540253,139.351501 504.345764,142.338882 506.626984,143.141266 
	C515.546021,146.278442 522.428284,140.267334 522.707520,128.815796 
z"/>
<path fill="#050505" opacity="1.000000" stroke="none" 
	d="
M345.789886,101.100464 
	C351.018494,104.673729 353.218750,109.394394 353.193787,115.316223 
	C353.142761,127.409630 353.178497,139.503403 353.178497,151.801605 
	C348.932739,151.801605 345.180878,151.801605 341.149323,151.801605 
	C341.057190,149.743271 340.970123,147.798279 340.831696,144.705994 
	C336.065369,151.674149 329.788818,153.603241 322.459473,153.036621 
	C313.961182,152.379623 307.777985,147.086731 306.951599,139.562256 
	C305.920105,130.170151 309.839020,124.281593 319.215790,122.049179 
	C324.198975,120.862793 329.391327,120.581825 334.454620,119.694374 
	C337.137085,119.224213 340.521667,119.149117 340.512878,115.182823 
	C340.504822,111.544930 338.898804,108.101990 335.117035,107.894379 
	C331.241058,107.681595 325.693359,107.664070 323.706055,109.984085 
	C320.220337,114.053474 316.916168,113.656128 312.865814,112.957085 
	C311.597290,112.738152 310.338806,112.461014 309.092896,112.213921 
	C311.321777,97.490097 333.822845,93.620613 345.789886,101.100464 
M335.343353,127.976860 
	C331.322388,128.834808 327.039551,129.117004 323.384460,130.779419 
	C321.381104,131.690582 319.228790,135.003998 319.354889,137.101273 
	C319.481415,139.206375 321.964203,142.011749 324.105927,142.979187 
	C328.619812,145.018204 333.326263,143.967819 337.033936,140.642319 
	C341.124115,136.973755 341.154846,132.106293 340.303223,126.816238 
	C338.706848,127.220932 337.446075,127.540543 335.343353,127.976860 
z"/>
<path fill="#060606" opacity="1.000000" stroke="none" 
	d="
M669.471924,125.067139 
	C670.102112,101.308014 688.505676,93.957588 704.401733,98.961075 
	C714.793091,102.231873 719.757629,110.405579 720.882202,120.677254 
	C722.162781,132.374039 719.921265,143.363739 708.811218,149.741394 
	C699.304260,155.198730 689.205078,154.836365 680.000305,148.562225 
	C672.012085,143.117340 669.591858,134.741913 669.471924,125.067139 
M682.428894,125.499519 
	C683.083618,128.899017 683.289917,132.468430 684.498596,135.657959 
	C686.289307,140.383347 690.000000,142.961945 695.286865,143.013046 
	C700.604980,143.064438 704.205444,140.407425 706.177856,135.780182 
	C709.178284,128.741135 709.157349,121.517731 705.984619,114.518044 
	C703.981201,110.097984 700.535950,107.625526 695.391174,107.667419 
	C690.310974,107.708778 686.624695,109.948257 684.813843,114.498802 
	C683.555298,117.661552 683.239319,121.199394 682.428894,125.499519 
z"/>
<path fill="#070707" opacity="1.000000" stroke="none" 
	d="
M1031.714355,103.313156 
	C1033.526001,106.202301 1035.081543,108.834015 1037.159058,112.348915 
	C1032.405762,112.844437 1028.862915,113.213768 1025.350464,113.579941 
	C1020.577393,107.135590 1015.421326,105.126419 1009.715942,108.069687 
	C1007.985413,108.962418 1006.026550,111.356552 1006.010986,113.079605 
	C1005.995605,114.784752 1007.960022,117.394760 1009.657654,118.050499 
	C1013.643188,119.590019 1018.008118,120.122246 1022.182861,121.203415 
	C1028.235596,122.770935 1034.224365,124.624802 1036.723145,131.241318 
	C1039.088257,137.503510 1036.539185,144.474625 1030.609009,148.715424 
	C1022.575256,154.460480 1006.933228,154.756577 998.796448,149.195969 
	C994.810608,146.472168 991.971802,142.908051 991.593079,137.480469 
	C994.886108,137.074310 998.099609,136.516815 1001.331055,136.377335 
	C1002.304382,136.335327 1003.655640,137.219696 1004.274658,138.081390 
	C1008.082397,143.381531 1014.730042,145.365891 1020.380615,142.192520 
	C1022.137268,141.205978 1024.138184,138.799561 1024.129517,137.052521 
	C1024.121094,135.346542 1022.018250,132.823410 1020.253845,132.123734 
	C1016.437195,130.610138 1012.238403,130.075165 1008.216980,129.056641 
	C1006.134949,128.529327 1004.034546,127.979301 1002.052917,127.169327 
	C996.957764,125.086754 993.187195,121.599403 992.767639,115.866394 
	C992.281189,109.218918 994.851074,103.891304 1000.923035,100.553329 
	C1010.137085,95.488060 1023.182373,96.537903 1031.714355,103.313156 
z"/>
<path fill="#060606" opacity="1.000000" stroke="none" 
	d="
M977.134888,124.760117 
	C985.867615,129.692596 984.230469,142.323380 977.684082,147.709473 
	C969.166870,154.717102 951.496826,155.306808 943.169556,148.021393 
	C940.268616,145.483414 938.565613,141.576233 935.813110,137.561615 
	C941.106140,137.005737 944.871704,136.610275 948.616272,136.217010 
	C953.534302,143.202087 956.811279,144.698013 963.846802,143.080582 
	C967.106750,142.331131 970.582947,140.789276 969.774536,137.088257 
	C969.279663,134.822723 966.413147,132.350998 964.037354,131.386276 
	C960.247986,129.847549 955.939392,129.643723 951.922913,128.596909 
	C942.817017,126.223610 938.742004,121.676788 938.678223,114.147766 
	C938.610779,106.186043 942.975647,100.726265 951.968567,98.524429 
	C959.896240,96.583420 968.042969,96.283501 974.907898,101.479637 
	C978.105042,103.899590 980.146301,107.846657 983.584900,112.209778 
	C978.195007,112.818710 974.639587,113.220375 971.079468,113.624344 
	C966.352356,107.083374 961.555054,105.110260 955.621460,108.006615 
	C953.713928,108.937744 951.608704,111.383820 951.426025,113.310555 
	C951.284363,114.804604 953.689453,117.339508 955.498535,118.053337 
	C959.311523,119.557915 963.515442,120.036697 967.484009,121.193489 
	C970.654602,122.117661 973.714417,123.422134 977.134888,124.760117 
z"/>
<path fill="#060606" opacity="1.000000" stroke="none" 
	d="
M476.160553,141.993759 
	C477.758820,142.875229 479.441162,143.537491 479.983429,144.721741 
	C480.852325,146.619431 480.965759,148.863022 481.385376,150.896820 
	C468.755402,156.963531 457.201294,149.866943 457.151459,136.263672 
	C457.117950,127.120193 457.108429,117.976624 457.075500,108.833138 
	C457.075012,108.697876 456.910828,108.563194 456.564117,108.030075 
	C454.598267,108.030075 452.346893,108.030075 449.907043,108.030075 
	C449.907043,104.530151 449.907043,101.428886 449.907043,98.117538 
	C452.270966,98.117538 454.407288,98.117538 457.008698,98.117538 
	C457.008698,93.853249 457.008698,89.780113 457.008698,85.386574 
	C461.501495,85.386574 465.535522,85.386574 469.993286,85.386574 
	C469.993286,89.522064 469.993286,93.602821 469.993286,98.036331 
	C473.649658,98.036331 476.900818,98.036331 480.433868,98.036331 
	C480.433868,101.318550 480.433868,104.236229 480.433868,107.748947 
	C477.120361,107.748947 473.755737,107.748947 470.034271,107.748947 
	C470.034271,117.764816 469.990356,127.201134 470.056427,136.636688 
	C470.081879,140.272079 472.077179,142.081268 476.160553,141.993759 
z"/>
<path fill="#080808" opacity="1.000000" stroke="none" 
	d="
M560.722168,114.000130 
	C560.722168,126.799713 560.722168,139.099289 560.722168,151.742813 
	C556.532349,151.742813 552.613037,151.742813 548.337524,151.742813 
	C548.337524,128.291611 548.337524,104.566093 548.337524,80.491859 
	C552.183105,80.491859 556.210754,80.491859 560.722168,80.491859 
	C560.722168,91.598900 560.722168,102.549507 560.722168,114.000130 
z"/>
<path fill="#080808" opacity="1.000000" stroke="none" 
	d="
M427.910919,138.991623 
	C427.910919,125.189346 427.910919,111.886093 427.910919,98.318512 
	C432.144226,98.318512 436.079712,98.318512 440.372711,98.318512 
	C440.372711,115.972961 440.372711,133.693283 440.372711,151.718018 
	C436.369751,151.718018 432.457550,151.718018 427.910919,151.718018 
	C427.910919,147.693359 427.910919,143.592010 427.910919,138.991623 
z"/>
<path fill="#070707" opacity="1.000000" stroke="none" 
	d="
M436.960083,77.073776 
	C440.235535,78.865868 442.721283,81.313370 441.328827,84.704979 
	C440.418762,86.921669 437.916809,89.471176 435.736176,89.905647 
	C433.504395,90.350319 430.154938,89.011894 428.503357,87.292786 
	C427.253479,85.991814 427.130707,82.572464 427.872986,80.613693 
	C429.314453,76.809738 432.877197,76.260094 436.960083,77.073776 
z"/>
<path fill="#FAFAFA" opacity="1.000000" stroke="none" 
	d="
M112.543701,126.765152 
	C104.970070,125.155182 100.762802,120.439270 99.324722,113.588989 
	C97.930412,106.947205 101.377586,102.207184 106.568855,98.307785 
	C108.416809,96.919693 109.320648,94.327797 111.065567,92.734589 
	C112.827835,91.125542 114.950439,89.499306 117.184067,88.923355 
	C119.932213,88.214729 121.695587,89.732941 122.227341,92.932350 
	C122.473564,94.413803 124.259064,95.695541 125.470963,96.947556 
	C127.417282,98.958321 129.964401,100.581825 131.311981,102.915138 
	C132.352173,104.716202 131.942291,107.354729 132.177124,109.620918 
	C129.539017,109.719490 126.862770,110.143318 124.271835,109.839539 
	C120.493286,109.396523 116.797440,108.221352 113.017601,107.834869 
	C112.078049,107.738808 110.130013,109.449753 110.104996,110.369789 
	C110.068260,111.720520 111.016129,113.828537 112.127159,114.334518 
	C114.797752,115.550758 117.767014,116.267601 120.687805,116.747421 
	C128.159943,117.974922 132.565720,122.302780 134.153915,129.561081 
	C135.597107,136.156723 131.887405,140.480179 127.499298,144.632721 
	C125.397644,146.621552 124.053825,149.399399 122.003922,151.458710 
	C120.523544,152.945877 118.330437,154.898911 116.662361,154.719391 
	C114.681702,154.506226 112.791695,152.371384 111.106514,150.806442 
	C109.529434,149.341888 108.321136,147.488342 106.859818,145.888870 
	C105.204254,144.076813 102.876762,142.622513 101.899254,140.520706 
	C100.962975,138.507523 101.383095,135.863525 101.207069,133.496765 
	C103.758858,133.538208 106.354378,133.299133 108.851891,133.688614 
	C112.359917,134.235687 115.765808,135.560379 119.277718,135.891739 
	C120.471130,136.004349 122.992378,134.010803 122.914055,133.164001 
	C122.746834,131.356201 121.691452,128.884598 120.242439,128.119385 
	C118.166039,127.022873 115.412743,127.208145 112.543701,126.765152 
z"/>
<path fill="#FAFAFA" opacity="1.000000" stroke="none" 
	d="
M853.723999,139.800507 
	C845.138733,145.176804 837.635193,142.572769 834.545898,133.399216 
	C832.569946,127.531479 832.638000,121.614952 834.874817,115.840088 
	C836.989563,110.380424 840.826904,107.842400 846.300049,107.933395 
	C851.564758,108.020927 855.644714,110.958038 857.309082,116.431015 
	C859.790527,124.590797 859.647034,132.501343 853.723999,139.800507 
z"/>
<path fill="#FCFCFC" opacity="1.000000" stroke="none" 
	d="
M400.764191,137.615860 
	C392.855194,145.729279 382.468353,143.621338 379.907837,133.066422 
	C378.603638,127.690285 379.045837,121.495438 380.250854,116.011765 
	C381.575409,109.984154 386.282135,107.595490 392.330536,107.943420 
	C397.308411,108.229752 401.407776,111.602112 402.893829,117.041679 
	C404.792633,123.992256 404.660126,130.832962 400.764191,137.615860 
z"/>
<path fill="#F7F7F7" opacity="1.000000" stroke="none" 
	d="
M905.583740,128.613586 
	C908.563782,127.994118 911.132019,127.488373 913.707458,126.981209 
	C914.937744,138.160690 910.415588,144.126724 901.027344,143.833862 
	C895.904541,143.674057 892.659302,141.337860 892.435486,137.373428 
	C892.167419,132.624466 895.267700,130.629349 899.315002,129.680969 
	C901.236267,129.230759 903.217712,129.037170 905.583740,128.613586 
z"/>
<path fill="#F5F5F5" opacity="1.000000" stroke="none" 
	d="
M522.709717,129.238724 
	C522.428284,140.267334 515.546021,146.278442 506.626984,143.141266 
	C504.345764,142.338882 501.540253,139.351501 501.388519,137.197998 
	C501.234894,135.016983 503.596527,131.361786 505.689972,130.577728 
	C510.718292,128.694473 516.229736,128.087082 521.570129,127.093262 
	C521.833313,127.044289 522.323181,128.213715 522.709717,129.238724 
z"/>
<path fill="#F6F6F6" opacity="1.000000" stroke="none" 
	d="
M335.764343,127.918503 
	C337.446075,127.540543 338.706848,127.220932 340.303223,126.816238 
	C341.154846,132.106293 341.124115,136.973755 337.033936,140.642319 
	C333.326263,143.967819 328.619812,145.018204 324.105927,142.979187 
	C321.964203,142.011749 319.481415,139.206375 319.354889,137.101273 
	C319.228790,135.003998 321.381104,131.690582 323.384460,130.779419 
	C327.039551,129.117004 331.322388,128.834808 335.764343,127.918503 
z"/>
<path fill="#FCFCFC" opacity="1.000000" stroke="none" 
	d="
M682.465576,125.034592 
	C683.239319,121.199394 683.555298,117.661552 684.813843,114.498802 
	C686.624695,109.948257 690.310974,107.708778 695.391174,107.667419 
	C700.535950,107.625526 703.981201,110.097984 705.984619,114.518044 
	C709.157349,121.517731 709.178284,128.741135 706.177856,135.780182 
	C704.205444,140.407425 700.604980,143.064438 695.286865,143.013046 
	C690.000000,142.961945 686.289307,140.383347 684.498596,135.657959 
	C683.289917,132.468430 683.083618,128.899017 682.465576,125.034592 
z"/>
</svg>